<?xml version="1.0" encoding="UTF-8"?>
<svg width="387px" height="288px" viewBox="0 0 387 288" version="1.1" xmlns="http://www.w3.org/2000/svg" xmlns:xlink="http://www.w3.org/1999/xlink">
    <!-- Generator: sketchtool 55.2 (78181) - https://sketchapp.com -->
    <title>3FDC7B00-B37D-467D-8896-D1DE439898F0@1.00x</title>
    <desc>Created with sketchtool.</desc>
    <defs>
        <path d="M333.663973,206.928872 C372.429308,210.809378 392.061799,225.125689 378.940974,240.219747 C351.752838,271.506585 262.701839,282 262.701839,282 C262.701839,282 220.085562,245.894421 238.710634,226.187375 C252.444848,211.661197 294.9027,203.052481 333.663973,206.928872 Z M309.09127,239.777778 C318.5612,239.777778 326.238095,236.537172 326.238095,232.539683 C326.238095,228.542193 318.5612,225.301587 309.09127,225.301587 C299.62134,225.301587 291.944444,228.542193 291.944444,232.539683 C291.944444,236.537172 299.62134,239.777778 309.09127,239.777778 Z" id="path-1"></path>
        <filter x="-4.7%" y="-6.6%" width="109.4%" height="118.4%" filterUnits="objectBoundingBox" id="filter-2">
            <feOffset dx="0" dy="2" in="SourceAlpha" result="shadowOffsetOuter1"></feOffset>
            <feGaussianBlur stdDeviation="2" in="shadowOffsetOuter1" result="shadowBlurOuter1"></feGaussianBlur>
            <feColorMatrix values="0 0 0 0 0   0 0 0 0 0   0 0 0 0 0  0 0 0 0.2 0" type="matrix" in="shadowBlurOuter1"></feColorMatrix>
        </filter>
        <path d="M84.9033329,62.0838948 C107.765775,64.2781633 119.344333,72.3734549 111.606128,80.908531 C95.5715141,98.599966 43.0523431,104.533566 43.0523431,104.533566 C43.0523431,104.533566 17.9187503,84.1173287 28.9031677,72.9737956 C37.0031274,64.759832 62.0432869,59.8919532 84.9033329,62.0838948 Z M69.46875,80.1424005 C75.0433742,80.1424005 79.5625,78.5823581 79.5625,76.6579483 C79.5625,74.7335385 75.0433742,73.1734961 69.46875,73.1734961 C63.8941258,73.1734961 59.375,74.7335385 59.375,76.6579483 C59.375,78.5823581 63.8941258,80.1424005 69.46875,80.1424005 Z" id="path-3"></path>
        <filter x="-8.0%" y="-11.6%" width="115.9%" height="132.6%" filterUnits="objectBoundingBox" id="filter-4">
            <feOffset dx="0" dy="2" in="SourceAlpha" result="shadowOffsetOuter1"></feOffset>
            <feGaussianBlur stdDeviation="2" in="shadowOffsetOuter1" result="shadowBlurOuter1"></feGaussianBlur>
            <feColorMatrix values="0 0 0 0 0   0 0 0 0 0   0 0 0 0 0  0 0 0 0.2 0" type="matrix" in="shadowBlurOuter1"></feColorMatrix>
        </filter>
    </defs>
    <g id="Journey-Planner" stroke="none" stroke-width="1" fill="none" fill-rule="evenodd">
        <g id="2.1.1---CaltexB2B---Journey-Planner--Create" transform="translate(-173.000000, -535.000000)">
            <g id="Routes-Popup-Copy" transform="translate(97.000000, 258.000000)">
                <g id="route-graphic" transform="translate(76.000000, 277.000000)">
                    <g id="Fill-2" fill="black" fill-opacity="1">
                        <use filter="url(#filter-2)" xlink:href="#path-1"></use>
                    </g>
                    <g id="Group-5">
                        <g id="Fill-2" fill="black" fill-opacity="1">
                            <use filter="url(#filter-4)" xlink:href="#path-3"></use>
                        </g>
                        <path d="M38.59375,51.4371514 C31.0555,51.4371514 24.9375,45.4531855 24.9375,38.0800847 C24.9375,30.7069839 31.0555,24.7230179 38.59375,24.7230179 C46.132,24.7230179 52.25,30.7069839 52.25,38.0800847 C52.25,45.4531855 46.132,51.4371514 38.59375,51.4371514 M38.59375,0.33185259 C17.2569196,0.33185259 0,17.2366724 0,38.1381589 C0,66.4928886 38.59375,108.349871 38.59375,108.349871 C38.59375,108.349871 77.1875,66.4928886 77.1875,38.1381589 C77.1875,17.2366724 59.9305804,0.33185259 38.59375,0.33185259" id="location" fill="#E62F46"></path>
                    </g>
                    <path d="M261,194.287671 C249.310588,194.287671 239.823529,184.523726 239.823529,172.493151 C239.823529,160.462575 249.310588,150.69863 261,150.69863 C272.689412,150.69863 282.176471,160.462575 282.176471,172.493151 C282.176471,184.523726 272.689412,194.287671 261,194.287671 M261,113 C227.828571,113 201,139.918 201,173.2 C201,218.35 261,285 261,285 C261,285 321,218.35 321,173.2 C321,139.918 294.171429,113 261,113" id="location" fill="#E62F46"></path>
                    <path d="M50,104.641028 C82.9816871,114.417405 95.788647,130.63206 102.407477,139.854907 C106.356005,145.357462 107.523879,154.320491 107.546304,160.65981 C107.576203,166.999448 105.429075,174.925997 104.185555,182.515377 C102.942035,190.105074 101.811468,201.344222 102.407477,216.545699 C110.179357,266.632928 157.203907,269.854266 245,280 C238.861105,272.403526 224.617025,257.22892 208.331775,228.853051 C165.249113,230.000272 144.859174,218.570177 134.863271,209.094746 C128.857957,203.402394 126.50367,198.058799 125.612964,192.105752 C124.722258,186.153023 124.735107,176.752831 125.928097,169.464204 C127.122283,162.175576 127.758834,162.035856 127.729831,153.827487 C127.699932,145.619436 126.803211,136.479018 119.662205,126.464676 C108.408049,113.58196 97.5509604,104.733987 57.1210326,96 C53.1918082,101.073714 50.7856181,103.69205 50,104.641028 Z" id="Shape" fill="#19516C"></path>
                </g>
            </g>
        </g>
    </g>
</svg>