<?xml version="1.0" encoding="UTF-8"?>
<svg width="18px" height="18px" viewBox="0 0 18 18" version="1.1" xmlns="http://www.w3.org/2000/svg" xmlns:xlink="http://www.w3.org/1999/xlink">
    <!-- Generator: sketchtool 55.2 (78181) - https://sketchapp.com -->
    <title>B3F0577C-43C6-41B2-AD3D-C9953D5B5326@1.00x</title>
    <desc>Created with sketchtool.</desc>
    <g id="Journey-Planner" stroke="none" stroke-width="1" fill="none" fill-rule="evenodd">
        <g id="2.1.2---CaltexB2B---Journey-Planner--Create" transform="translate(-511.000000, -377.000000)" fill="#E62F46">
            <g id="Routes-Popup-Copy" transform="translate(97.000000, 258.000000)">
                <g id="A" transform="translate(45.000000, 113.000000)">
                    <g id="Icons" transform="translate(369.000000, 0.000000)">
                        <g id="icons/edit" transform="translate(0.000000, 6.000000)">
                            <g id="Group" transform="translate(0.642857, 0.642857)">
                                <path d="M16.0256773,1.79437507 L14.9183448,0.686971406 C14.0028901,-0.228542072 12.5118019,-0.229438755 11.5963472,0.686971406 L1.62945789,10.6536044 C1.5666941,10.7163722 1.5209662,10.7943837 1.49675731,10.8795686 L0.0200150682,16.0480501 C-0.0319892123,16.2309735 0.0191184426,16.4264504 0.152715646,16.5609529 C0.252241079,16.6604847 0.384941657,16.7142857 0.522125362,16.7142857 C0.569646515,16.7142857 0.618064293,16.7080089 0.665585446,16.6945587 L5.83373497,15.2177216 C5.91981102,15.1935111 5.99692082,15.1477803 6.0596846,15.0850125 L16.0256773,5.11658608 C16.4695069,4.67272793 16.7142857,4.08271043 16.7142857,3.45592892 C16.7142857,2.82825073 16.4695069,2.23733654 16.0256773,1.79437507 Z M4.33256377,14.5590059 L1.28246381,15.4302355 L2.12742629,12.4717143 L4.33256377,14.5590059 Z M15.2877545,4.37861586 L14.180422,5.48601953 L11.2269375,2.53234529 L12.33427,1.42494162 C12.8426567,0.916522288 13.6711387,0.916522288 14.180422,1.42494162 L15.2877545,2.53234529 C15.5343265,2.77893315 15.669717,3.1062225 15.669717,3.45503224 C15.669717,3.80384197 15.5343265,4.132028 15.2877545,4.37861586 Z M5.4168041,14.2493038 L2.46331962,11.2956295 L3.25255544,10.5062548 L10.4881181,3.26941883 L13.4416025,6.22309307 L6.20054403,13.4654259 L5.4168041,14.2493038 Z" id="Shape"></path>
                            </g>
                        </g>
                    </g>
                </g>
            </g>
        </g>
    </g>
</svg>