<?xml version="1.0" encoding="UTF-8"?>
<svg width="21px" height="16px" viewBox="0 0 21 16" version="1.1" xmlns="http://www.w3.org/2000/svg" xmlns:xlink="http://www.w3.org/1999/xlink">
    <!-- Generator: sketchtool 55.2 (78181) - https://sketchapp.com -->
    <title>AB089CDC-E289-4518-8AB7-A3187DC54E1B@1.00x</title>
    <desc>Created with sketchtool.</desc>
    <g id="Journey-Planner" stroke="none" stroke-width="1" fill="none" fill-rule="evenodd">
        <g id="2.2.2---CaltexB2B---Journey-Planner---3-Routes" transform="translate(-191.000000, -765.000000)" fill="#19516C">
            <g id="drawer" transform="translate(97.000000, 608.000000)">
                <g id="JO" transform="translate(45.000000, 117.000000)">
                    <g id="Vehicles">
                        <g id="icons/journey-planner/vehicle" transform="translate(49.000000, 40.000000)">
                            <g id="noun_Truck_13082" transform="translate(10.500000, 8.000000) scale(-1, 1) translate(-10.500000, -8.000000) ">
                                <path d="M4.6404,10.9257143 L4.6404,10.9257143 C6.0111,10.9257143 7.125,12.0572952 7.125,13.4497524 C7.125,14.8419048 6.0111,15.9713524 4.6404,15.9713524 C3.27,15.9713524 2.157,14.8419048 2.157,13.4497524 C2.157,12.0572952 3.27,10.9257143 4.6404,10.9257143 M4.64236418,12.305981 L4.64236418,12.305981 C5.26387812,12.305981 5.7675,12.8192525 5.7675,13.4489761 C5.7675,14.0803553 5.26387812,14.5916952 4.64236418,14.5916952 C4.0219368,14.5916952 3.5175,14.0803553 3.5175,13.4489761 C3.51777164,12.8195285 4.0219368,12.305981 4.64236418,12.305981" id="Shape"></path>
                                <path d="M14.7654,10.9244952 L14.7654,10.9244952 C16.1361,10.9244952 17.25,12.0560762 17.25,13.4485333 C17.25,14.8406857 16.1361,15.9701333 14.7654,15.9701333 C13.395,15.9701333 12.282,14.8406857 12.282,13.4485333 C12.282,12.0560762 13.395,10.9244952 14.7654,10.9244952 M14.7673642,12.3047619 L14.7673642,12.3047619 C15.3888781,12.3047619 15.8925,12.8180335 15.8925,13.447757 C15.8925,14.0791363 15.3888781,14.5904762 14.7673642,14.5904762 C14.1469368,14.5904762 13.6425,14.0791363 13.6425,13.447757 C13.6427716,12.8183094 14.1469368,12.3047619 14.7673642,12.3047619" id="Shape"></path>
                                <path d="M0.7761,8.0856381 L1.4358,4.29958095 L1.4358,4.34041905 C1.5528,3.55108571 2.2122,2.99946667 2.9496,2.99946667 L7.1796,2.99946667 C7.5222,2.99946667 7.8006,3.28167619 7.8006,3.63032381 L7.8006,7.14057143 L8.2926,7.14057143 L8.2926,0.973772321 C8.2926,0.62481994 8.571,0.342610417 8.9136,0.342610417 L20.3787,0.342610417 C20.7222,0.342610417 21,0.625124702 21,0.973772321 C21,3.95410188 21,6.11448889 21,7.45493333 C21,8.79537778 21,10.8060444 21,13.4869333 L17.5767419,13.4869333 L17.5746419,13.4869333 C17.5767419,13.4741333 17.5767419,13.4613333 17.5767419,13.4485333 C17.5767419,11.9232 16.3419419,10.686781 14.8203419,10.686781 C13.3002419,10.686781 12.0654419,11.9232 12.0654419,13.4485333 L12.0654419,13.4869333 L7.4127,13.4869333 L7.4127,13.4485333 C7.4127,11.9232 6.1782,10.686781 4.6569,10.686781 C3.1356,10.686781 1.9014,11.9232 1.9014,13.4485333 L1.9014,13.4869333 L0.9312,13.4869333 L0.000300000001,9.22788571 L0.0213,9.23428571 C0.0078,9.16784762 0.000300000001,9.09958095 0.000300000001,9.03100952 C0.000300000001,8.56899048 0.3288,8.1752381 0.7773,8.0984381 L0.7761,8.0856381 Z M6.63702393,4.203125 L6.63702393,7.14057143 L2.14654541,7.14057143 L2.61244541,4.67611548 C2.65144541,4.35946786 2.92294541,4.12602024 3.19444541,4.12602024 L6.63702393,4.12602024 L6.63702393,4.203125 Z" id="Shape"></path>
                                <polygon id="Path" points="11.8029 13.4869333 12.81 13.4869333 13.4331 11.8695619 15.6843 11.8695619 17.0802 13.4869333 18.75 13.4869333 16.4991 10.2144 16.4991 10.1351619 11.7645 10.1351619"></polygon>
                            </g>
                        </g>
                    </g>
                </g>
            </g>
        </g>
    </g>
</svg>