<?xml version="1.0" encoding="UTF-8"?>
<svg width="13px" height="15px" viewBox="0 0 13 15" version="1.1" xmlns="http://www.w3.org/2000/svg" xmlns:xlink="http://www.w3.org/1999/xlink">
    <!-- Generator: sketchtool 55.2 (78181) - https://sketchapp.com -->
    <title>E48FA016-B671-429A-9E4D-7887EC2C5FDD@1.00x</title>
    <desc>Created with sketchtool.</desc>
    <g id="Journey-Planner" stroke="none" stroke-width="1" fill="none" fill-rule="evenodd">
        <g id="2.1.2---CaltexB2B---Journey-Planner--Create" transform="translate(-310.000000, -379.000000)" fill="#000000">
            <g id="Routes-Popup-Copy" transform="translate(97.000000, 258.000000)">
                <g id="A" transform="translate(45.000000, 113.000000)">
                    <g id="Group-9" transform="translate(20.000000, 0.000000)">
                        <g id="icons/swap" transform="translate(147.000000, 8.000000)">
                            <path d="M13.487508,3.61573975 C13.4822841,3.58720253 13.4729719,3.56038738 13.4643411,3.53332623 C13.4595715,3.51881161 13.4573002,3.50355895 13.4516221,3.48929034 C13.4398115,3.45927706 13.4248211,3.43147787 13.4091494,3.40343267 C13.4039255,3.39359225 13.3998372,3.38276778 13.3941591,3.37317337 C13.3712193,3.3365178 13.3453269,3.30207633 13.3164818,3.27083299 L10.4796722,0.198161481 C10.2357384,-0.0660538271 9.84053829,-0.0660538271 9.59637733,0.198161481 C9.3524435,0.462130779 9.3524435,0.890435111 9.59637733,1.15489643 L11.3672824,3.07328654 L2.1245978,3.07328654 C1.77959269,3.07328654 1.5,3.3761255 1.5,3.74981549 C1.5,4.12350549 1.77959269,4.42634445 2.1245978,4.42634445 L11.3672824,4.42634445 L9.59592308,6.34498057 C9.35198925,6.60894986 9.35198925,7.03725419 9.59592308,7.30171551 C9.71789,7.43382317 9.8775599,7.5 10.0374569,7.5 C10.197354,7.5 10.3570239,7.43382317 10.4789908,7.30171551 L13.3164818,4.22855198 C13.3453269,4.19730864 13.3712193,4.16286717 13.3941591,4.1262116 C13.3998372,4.11661719 13.4039255,4.10579273 13.4091494,4.09595231 C13.424594,4.06815312 13.4398115,4.04010792 13.4516221,4.01009463 C13.4570731,3.99582602 13.4595715,3.98057337 13.4643411,3.96605875 C13.4727448,3.93899759 13.482057,3.91218244 13.487508,3.88364522 C13.4954575,3.83985535 13.5,3.79532744 13.5,3.74981549 C13.5,3.70430354 13.4954575,3.65952963 13.487508,3.61573975 Z M12.8756175,10.5734862 L3.63275794,10.5734862 L5.40415081,8.6549366 C5.64808926,8.39097921 5.64808926,7.9626942 5.40415081,7.6982448 C5.16021237,7.43379541 4.76500483,7.43404141 4.52083925,7.6982448 L1.68329453,10.7715157 C1.65444892,10.8027577 1.62855602,10.8371976 1.60561581,10.8738515 C1.60016467,10.8831995 1.59630345,10.8935315 1.59130657,10.9028794 C1.57563455,10.9309234 1.55996252,10.9592133 1.54837885,10.9899632 C1.54315485,11.0039852 1.54065641,11.0189912 1.53588666,11.0332591 C1.52748282,11.0605651 1.51794333,11.087625 1.51249219,11.1164069 C1.50431548,11.1601948 1.5,11.2047207 1.5,11.2502306 C1.5,11.2957405 1.50431548,11.3402664 1.51249219,11.3840543 C1.5177162,11.4128363 1.52725569,11.4398962 1.53588666,11.4672021 C1.54065641,11.4814701 1.54292772,11.4964761 1.54837885,11.510498 C1.56018965,11.541002 1.57563455,11.5692919 1.59130657,11.5975818 C1.59630345,11.6069298 1.60016467,11.6172618 1.60561581,11.6266098 C1.62855602,11.6632637 1.65444892,11.6977036 1.68329453,11.7289455 L4.52038499,14.8017245 C4.64235421,14.9338262 4.80202714,15 4.9619272,15 C5.12182727,15 5.2815002,14.9338262 5.40346942,14.8017245 C5.64740787,14.5377671 5.64740787,14.109482 5.40346942,13.8450327 L3.6325308,11.9267291 L12.8753904,11.9267291 C13.220402,11.9267291 13.5,11.6239038 13.5,11.2502306 C13.5,10.8765575 13.2206292,10.5734862 12.8756175,10.5734862 Z" id="Shape"></path>
                        </g>
                    </g>
                </g>
            </g>
        </g>
    </g>
</svg>