<?xml version="1.0" encoding="UTF-8"?>
<svg width="12px" height="8px" viewBox="0 0 12 8" version="1.1" xmlns="http://www.w3.org/2000/svg" xmlns:xlink="http://www.w3.org/1999/xlink">
    <!-- Generator: sketchtool 55.2 (78181) - https://sketchapp.com -->
    <title>E2E879C3-A160-4999-BB15-50CE59680616@1.00x</title>
    <desc>Created with sketchtool.</desc>
    <g id="Journey-Planner" stroke="none" stroke-width="1" fill="none" fill-rule="evenodd">
        <g id="2.1.2---CaltexB2B---Journey-Planner--Create" transform="translate(-892.000000, -711.000000)" fill="#666666">
            <g id="Routes-Popup-Copy" transform="translate(97.000000, 258.000000)">
                <g id="Group-3" transform="translate(585.000000, 444.000000)">
                    <g id="Group">
                        <g id="icons/arrow-up" transform="translate(216.000000, 13.000000) scale(1, -1) translate(-216.000000, -13.000000) translate(210.000000, 7.000000)">
                            <path d="M8.85,11.25 L2.4,11.25 C1.98578644,11.25 1.65,11.5857864 1.65,12 C1.65,12.4142136 1.98578644,12.75 2.4,12.75 L9.6,12.75 C10.0142136,12.75 10.35,12.4142136 10.35,12 L10.35,4.8 C10.35,4.38578644 10.0142136,4.05 9.6,4.05 C9.18578644,4.05 8.85,4.38578644 8.85,4.8 L8.85,11.25 Z" id="Path" transform="translate(6.000000, 8.400000) scale(1, -1) rotate(45.000000) translate(-6.000000, -8.400000) "></path>
                        </g>
                    </g>
                </g>
            </g>
        </g>
    </g>
</svg>