<?xml version="1.0" encoding="UTF-8"?>
<svg width="146px" height="141px" viewBox="0 0 146 141" version="1.1" xmlns="http://www.w3.org/2000/svg" xmlns:xlink="http://www.w3.org/1999/xlink">
    <!-- Generator: sketchtool 55.2 (78181) - https://sketchapp.com -->
    <title>76E9AB7C-BF9D-4234-AADC-B74F8D34E807@1.00x</title>
    <desc>Created with sketchtool.</desc>
    <defs>
        <path d="M124.429672,83.4324885 C97.5048955,80.7929722 68.0123606,86.6548279 58.472152,96.546009 C45.534602,109.964951 75.1371837,134.55 75.1371837,134.55 C75.1371837,134.55 136.994756,127.404813 155.880475,106.100946 C164.994605,95.8230841 151.357271,86.0748068 124.429672,83.4324885" id="path-1"></path>
        <filter x="-6.8%" y="-9.7%" width="113.5%" height="127.1%" filterUnits="objectBoundingBox" id="filter-2">
            <feOffset dx="0" dy="2" in="SourceAlpha" result="shadowOffsetOuter1"></feOffset>
            <feGaussianBlur stdDeviation="2" in="shadowOffsetOuter1" result="shadowBlurOuter1"></feGaussianBlur>
            <feColorMatrix values="0 0 0 0 0   0 0 0 0 0   0 0 0 0 0  0 0 0 0.2 0" type="matrix" in="shadowBlurOuter1"></feColorMatrix>
        </filter>
    </defs>
    <g id="Journey-Planner" stroke="none" stroke-width="1" fill="none" fill-rule="evenodd">
        <g id="2.0---CaltexB2B---Journey-Planner" transform="translate(-516.000000, -594.000000)">
            <g id="Graphic" transform="translate(231.000000, 233.000000)">
                <g id="Icons/pin-caltex-station" transform="translate(268.000000, 361.000000)">
                    <g id="Fill-1" fill="black" fill-opacity="1">
                        <use filter="url(#filter-2)" xlink:href="#path-1"></use>
                    </g>
                    <path d="M69,0 C40.3896429,0 17.25,21.597 17.25,48.3 C17.25,84.525 69,138 69,138 C69,138 120.75,84.525 120.75,48.3 C120.75,21.597 97.6103571,0 69,0" id="Path" fill="#E62F46" fill-rule="evenodd"></path>
                    <g id="Caltex" stroke-width="1" fill-rule="evenodd" transform="translate(31.050000, 13.800000)">
                        <path d="M75.9,37.9498951 C75.9,58.9098743 58.9083334,75.9 37.9456981,75.9 C16.9927158,75.9 0,58.9098743 0,37.9498951 C0,16.9911749 16.9927158,0 37.9456981,0 C58.9083334,0 75.9,16.9911749 75.9,37.9498951" id="Fill-35" fill="#FEFEFE"></path>
                        <path d="M75.9,37.9498951 C75.9,58.9098743 58.9083334,75.9 37.9456981,75.9 C16.9927158,75.9 0,58.9098743 0,37.9498951 C0,16.9911749 16.9927158,0 37.9456981,0 C58.9083334,0 75.9,16.9911749 75.9,37.9498951 Z" id="Stroke-37" stroke="#FEFEFE" stroke-width="0.071"></path>
                        <polygon id="Fill-39" fill="#EC1F30" points="46.4033642 26.9891961 30.1633986 26.9891961 25.1500844 42.4738221 72.6808388 26.9891961 51.4227464 42.4738221 59.5487973 67.5304916 38.2773132 52.045656 17.0288462 67.5304916 18.1635848 68.3183607 19.328664 69.0684926 20.5203174 69.7739688 21.7473333 70.4364665 23.0009234 71.0540989 24.278786 71.620786 25.5844782 72.138834 26.911095 72.6118071 28.2653322 73.0275454 29.635472 73.3935963 31.0323953 73.7097503 32.4473137 73.9676212 33.8745776 74.1693056 35.3271602 74.3200448 36.7931346 74.407679 38.2773132 74.4403846 41.967777 74.25086 45.5611508 73.7024125 49.0270941 72.8074116 52.346147 71.5916445 55.5099397 70.0643357 58.4916888 68.2489662 61.2805135 66.1625177 63.8448177 63.821972 66.1772779 61.2501811 68.2584341 58.4572082 70.0692451 55.4757588 71.5994578 52.3035269 72.8143374 48.9742663 73.7073975 45.5003464 74.2535283 41.9000068 74.4403846 38.198825 74.2535283 34.4926116 73.7073975 30.892272 72.8143374 27.4173038 71.5994578 24.0880432 70.0776149 20.9168595 68.2647115 17.9280724 66.183346 15.1350995 63.8508858 12.5635182 61.2805135 10.2240208 58.4990124 8.13757228 55.5147524 6.32094487 52.3534706 4.7888141 49.0306513 3.57304695 45.5672189 2.67678818 41.9774023 2.12834072 38.2846368 1.94615385"></polygon>
                        <polygon id="Fill-41" fill="#014C5F" points="38.4365385 1.94615385 34.7023813 2.12884084 31.0799279 2.67942163 27.5835372 3.57689771 24.23158 4.79355106 21.0386265 6.32938169 18.0321274 8.14743221 15.224119 10.2384633 12.630227 12.5806365 10.2764241 15.157573 8.17474654 17.9549938 6.34631029 20.9483306 4.80948628 24.1233045 3.58475707 27.4591269 2.6845811 30.939629 2.13218599 34.5446523 1.94615385 38.2578179 2.01224699 40.4998282 2.21559427 42.7090809 2.55112785 44.883056 3.01525799 47.003275 3.59953829 49.0894765 4.30249062 51.1086927 5.11925831 53.0791923 6.04878555 54.9923661 7.08241478 56.8375047 8.22626963 58.6179679 9.46324614 60.3217865 10.7870095 61.9512705 12.2186757 63.4980203 13.7238257 64.9641359 15.3157625 66.3416378 16.9900518 67.6288462 25.1843349 42.5263939 3.77100038 27.0290775 30.2716066 27.0171084"></polygon>
                    </g>
                </g>
            </g>
        </g>
    </g>
</svg>