<?xml version="1.0" encoding="UTF-8"?>
<svg width="18px" height="18px" viewBox="0 0 18 18" version="1.1" xmlns="http://www.w3.org/2000/svg" xmlns:xlink="http://www.w3.org/1999/xlink">
    <!-- Generator: sketchtool 55.2 (78181) - https://sketchapp.com -->
    <title>DE736682-2305-4B69-81E3-6A84DEE11CDA@1.00x</title>
    <desc>Created with sketchtool.</desc>
    <g id="Journey-Planner" stroke="none" stroke-width="1" fill="none" fill-rule="evenodd">
        <g id="2.2.2---CaltexB2B---Journey-Planner---3-Routes" transform="translate(-502.000000, -970.000000)" fill="#E62F46">
            <g id="drawer" transform="translate(97.000000, 608.000000)">
                <g id="Mileage" transform="translate(405.000000, 80.000000)">
                    <g id="CTAs" transform="translate(0.000000, 276.000000)">
                        <g id="icons/print" transform="translate(0.000000, 6.000000)">
                            <path d="M4.07083422,16.7409054 L13.931086,16.7409054 C13.931086,14.9939738 13.931086,13.2470423 13.931086,11.4982602 L4.07083422,11.4982602 C4.07083422,13.2470423 4.07083422,14.9939738 4.07083422,16.7409054 Z M13.931086,4.41800582 L13.931086,1.25909465 L4.07083422,1.25909465 L4.07083422,4.41800582 L13.931086,4.41800582 Z M3.42948581,4.41800582 L3.42948581,0.950050614 C3.42948581,0.779798811 3.57350117,0.642857143 3.75016002,0.642857143 L14.2517602,0.642857143 C14.428419,0.642857143 14.5705142,0.779798811 14.5705142,0.950050614 L14.5705142,4.41800582 L15.7668018,4.41800582 C16.9861319,4.41800582 18,5.39325256 18,6.56836012 L18,12.888033 C18,14.0538878 16.9765308,15.0383873 15.7668018,15.0383873 L14.5705142,15.0383873 L14.5705142,17.0499494 C14.5705142,17.2202012 14.428419,17.3571429 14.2517602,17.3571429 L3.75016002,17.3571429 C3.57350117,17.3571429 3.42948581,17.2202012 3.42948581,17.0499494 L3.42948581,15.0383873 L2.23319821,15.0383873 C1.01002774,15.0383873 0,14.0649911 0,12.888033 L0,6.56836012 C0,5.38585031 1.00426712,4.41800582 2.23319821,4.41800582 L3.42948581,4.41800582 Z M14.5705142,14.4221498 L15.7668018,14.4221498 C16.6251333,14.4221498 17.3605718,13.7152347 17.3605718,12.888033 L17.3605718,6.56836012 C17.3605718,5.73190561 16.6347344,5.03424333 15.7668018,5.03424333 L2.23319821,5.03424333 C1.35758481,5.03424333 0.639428206,5.72450335 0.639428206,6.56836012 L0.639428206,12.888033 C0.639428206,13.7263381 1.36142522,14.4221498 2.23319821,14.4221498 L3.42948581,14.4221498 L3.42948581,11.1910667 C3.42948581,11.0208149 3.57350117,10.8820226 3.75016002,10.8820226 L14.2517602,10.8820226 C14.428419,10.8820226 14.5705142,11.0208149 14.5705142,11.1910667 L14.5705142,14.4221498 L14.5705142,14.4221498 Z M15.4285714,7.71428571 C15.7836116,7.71428571 16.0714286,7.42646877 16.0714286,7.07142857 C16.0714286,6.71638838 15.7836116,6.42857143 15.4285714,6.42857143 C15.0735312,6.42857143 14.7857143,6.71638838 14.7857143,7.07142857 C14.7857143,7.42646877 15.0735312,7.71428571 15.4285714,7.71428571 Z" id="Shape"></path>
                        </g>
                    </g>
                </g>
            </g>
        </g>
    </g>
</svg>