<?xml version="1.0" encoding="UTF-8"?>
<svg width="15px" height="15px" viewBox="0 0 15 15" version="1.1" xmlns="http://www.w3.org/2000/svg" xmlns:xlink="http://www.w3.org/1999/xlink">
    <!-- Generator: sketchtool 55.2 (78181) - https://sketchapp.com -->
    <title>58F26229-1394-45D2-866F-17F69841BC66@1.00x</title>
    <desc>Created with sketchtool.</desc>
    <g id="Journey-Planner" stroke="none" stroke-width="1" fill="none" fill-rule="evenodd">
        <g id="2.1.2---CaltexB2B---Journey-Planner--Create" transform="translate(-1297.000000, -288.000000)" fill="#19516C">
            <g id="Routes-Popup-Copy" transform="translate(97.000000, 258.000000)">
                <g id="icons/close" transform="translate(1200.000000, 30.000000)">
                    <path d="M0.342222756,0.342222756 C0.798519764,-0.114074252 1.53769055,-0.114074252 1.99398755,0.342222756 L7.5,5.8482352 L13.0060124,0.342222756 C13.4623095,-0.114074252 14.2014802,-0.114074252 14.6577772,0.342222756 C15.1140743,0.798519764 15.1140743,1.53769055 14.6577772,1.99398755 L9.1517648,7.5 L14.6577772,13.0060124 C15.1140743,13.4623095 15.1140743,14.2014802 14.6577772,14.6577772 C14.2014802,15.1140743 13.4623095,15.1140743 13.0060124,14.6577772 L7.5,9.1517648 L1.99398755,14.6577772 C1.53769055,15.1140743 0.798519764,15.1140743 0.342222756,14.6577772 C-0.114074252,14.2014802 -0.114074252,13.4623095 0.342222756,13.0060124 L5.8482352,7.5 L0.342222756,1.99398755 C-0.114074252,1.53769055 -0.114074252,0.798519764 0.342222756,0.342222756 Z" id="Fill-1"></path>
                </g>
            </g>
        </g>
    </g>
</svg>