<?xml version="1.0" standalone="no"?>
<!DOCTYPE svg PUBLIC "-//W3C//DTD SVG 1.1//EN" "http://www.w3.org/Graphics/SVG/1.1/DTD/svg11.dtd" >
<svg xmlns="http://www.w3.org/2000/svg" xmlns:xlink="http://www.w3.org/1999/xlink" version="1.1">
<metadata>
Created by FontForge 20161003 at Sun Jul 21 14:00:40 2019
 By www-data
Copyright (c) 1995, 2002 Adobe Systems Incorporated. All Rights Reserved.
</metadata>
<defs>
<font id="ITCFranklinGothicStdBkXCp" horiz-adv-x="290" >
  <font-face 
    font-family="ITCFranklinGothicStdBkXCp"
    font-weight="400"
    font-stretch="ultra-condensed"
    units-per-em="1000"
    panose-1="2 11 5 8 3 5 3 2 2 4"
    ascent="686"
    descent="-314"
    x-height="493"
    cap-height="667"
    bbox="-86 -250 791 844"
    underline-thickness="50"
    underline-position="-150"
    unicode-range="U+0020-FB02"
  />
<missing-glyph horiz-adv-x="500" 
d="M0 0v700h500v-700h-500zM250 395l170 255h-340zM280 350l170 -255v510zM80 50h340l-170 255zM50 605v-510l170 255z" />
    <glyph glyph-name="f_i" unicode="fi" horiz-adv-x="307" 
d="M112 0h-64v433h-37v60h40v68q0 18 0.5 29t5 29.5t12 29.5t24 19.5t39.5 8.5q14 0 42 -5v-55q-21 3 -26 3q-18 0 -28 -12t-10 -47v-68h53v-60h-51v-433zM271 0h-64v493h64v-493zM271 580h-64v85h64v-85z" />
    <glyph glyph-name="f_l" unicode="fl" horiz-adv-x="307" 
d="M271 0h-64v667h64v-667zM112 0h-64v433h-37v60h40v68q0 18 0.5 29t5 29.5t12 29.5t24 19.5t39.5 8.5q14 0 42 -5v-55q-21 3 -26 3q-18 0 -28 -12t-10 -47v-68h53v-60h-51v-433z" />
    <glyph glyph-name=".notdef" horiz-adv-x="500" 
d="M0 0v700h500v-700h-500zM250 395l170 255h-340zM280 350l170 -255v510zM80 50h340l-170 255zM50 605v-510l170 255z" />
    <glyph glyph-name=".null" horiz-adv-x="0" 
 />
    <glyph glyph-name="nonmarkingreturn" horiz-adv-x="333" 
 />
    <glyph glyph-name="space" unicode=" " horiz-adv-x="162" 
 />
    <glyph glyph-name="exclam" unicode="!" horiz-adv-x="222" 
d="M150 1h-77v103h77v-103zM136 166h-52l-12 501h76z" />
    <glyph glyph-name="quotedbl" unicode="&#x22;" 
d="M110 388h-49l-7 279h64zM229 388h-48l-9 279h65z" />
    <glyph glyph-name="numbersign" unicode="#" horiz-adv-x="324" 
d="M212 0h-53l23 212h-64l-23 -212h-53l23 212h-57l5 55h58l16 147h-57l5 55h58l22 197h52l-22 -197h65l22 197h52l-22 -197h53l-4 -55h-55l-15 -147h54l-5 -55h-55zM124 267h64l16 147h-65z" />
    <glyph glyph-name="dollar" unicode="$" horiz-adv-x="324" 
d="M184 -71h-42v85q-26 4 -45 15.5t-29.5 25.5t-17.5 36t-9.5 37t-4.5 39l59 9q1 -48 18.5 -75t45.5 -27q63 0 63 109q0 55 -18 80t-79 70q-77 55 -77 163q0 136 92 160v72h41v-71q53 -10 76 -57q18 -33 21 -78l-59 -11q-8 87 -57 87q-51 0 -51 -85q0 -78 55 -120
q35 -25 52 -39.5t36 -38t26.5 -52.5t7.5 -69q0 -159 -104 -179v-86z" />
    <glyph glyph-name="percent" unicode="%" horiz-adv-x="545" 
d="M24 469q0 35 0.5 55t3.5 47.5t9 43t16.5 31t27 22t39.5 6.5q22 0 38 -6.5t26 -21t16.5 -31t9.5 -43.5t4 -50.5t1 -59.5q0 -104 -18.5 -152t-76.5 -48q-22 0 -38.5 6.5t-27 21t-16.5 30.5t-9 43t-4 49t-1 57zM80 466q0 -101 10 -134q7 -26 28 -26q22 0 29 23q11 32 11 131
q0 83 -5 122q-7 48 -35 48q-15 0 -22 -11q-16 -25 -16 -153zM331 203q0 35 0.5 54.5t3.5 47.5t9 43t16 30.5t26.5 22t39.5 6.5q32 0 52 -14.5t29 -46.5t11.5 -64t2.5 -86q0 -51 -3 -84t-12.5 -61.5t-29 -41.5t-49.5 -13q-22 0 -38.5 6.5t-27 21t-16.5 30.5t-9 43t-4 49
t-1 57zM387 199q0 -97 10 -134q7 -25 27 -25q22 0 30 23q10 31 10 130q0 83 -5 122q-6 48 -34 48q-21 0 -28 -22q-10 -29 -10 -142zM194 0h-42l199 666h42z" />
    <glyph glyph-name="ampersand" unicode="&#x26;" horiz-adv-x="324" 
d="M329 61v-61q-25 -7 -34 -7q-43 0 -64 45q-33 -46 -90 -46q-63 0 -95 50.5t-32 130.5q0 54 14.5 99t28 65.5t37.5 49.5q-52 108 -52 166q0 54 26.5 89.5t71.5 35.5q39 0 68.5 -31t29.5 -91q0 -83 -79 -173l86 -218q21 69 24 156l56 -7q-13 -141 -50 -216q16 -41 37 -41
q9 0 17 4zM208 93l-93 244q-32 -50 -32 -152q0 -129 67 -129q37 0 58 37zM136 436q45 62 45 111q0 28 -9.5 49t-30.5 21q-20 0 -28.5 -20.5t-8.5 -45.5q0 -44 32 -115z" />
    <glyph glyph-name="quotesingle" unicode="'" horiz-adv-x="170" 
d="M111 388h-54l-6 279h68z" />
    <glyph glyph-name="parenleft" unicode="(" horiz-adv-x="222" 
d="M188 -127h-48q-39 79 -64.5 191t-25.5 227q0 214 88 415h49q-65 -235 -65 -419q0 -99 20.5 -218.5t45.5 -195.5z" />
    <glyph glyph-name="parenright" unicode=")" horiz-adv-x="222" 
d="M84 -127h-49q65 229 65 417q0 98 -20 216.5t-46 199.5h48q39 -81 64.5 -193t25.5 -228q0 -223 -88 -412z" />
    <glyph glyph-name="asterisk" unicode="*" horiz-adv-x="324" 
d="M189 406l-54 -1l8 102l-83 -58l-27 47l92 43l-92 43l27 47l83 -58l-8 100l54 -1l-8 -97l83 56l27 -46l-90 -45l90 -41l-27 -48l-83 59z" />
    <glyph glyph-name="plus" unicode="+" horiz-adv-x="324" 
d="M187 129h-51v179h-112v51h112v179h51v-179h112v-51h-112v-179z" />
    <glyph glyph-name="comma" unicode="," horiz-adv-x="170" 
d="M81 -115h-34l31 115h-31v101h76v-95z" />
    <glyph glyph-name="hyphen" unicode="-" horiz-adv-x="204" 
d="M171 224h-138v60h138v-60z" />
    <glyph glyph-name="period" unicode="." horiz-adv-x="170" 
d="M125 0h-79v108h79v-108z" />
    <glyph glyph-name="slash" unicode="/" horiz-adv-x="256" 
d="M23 -167l-50 1l217 832h50z" />
    <glyph glyph-name="zero" unicode="0" horiz-adv-x="324" 
d="M30 337q0 206 27 268q31 70 106 70q47 0 75.5 -30t38.5 -73q17 -87 17 -248q0 -178 -26 -255t-104 -77q-82 0 -111 84q-23 65 -23 261zM100 331q0 -172 15 -229q9 -47 45 -47q35 0 48 43q16 55 16 234q0 117 -8 194q-9 85 -55 85q-33 0 -46 -40q-15 -48 -15 -240z" />
    <glyph glyph-name="one" unicode="1" horiz-adv-x="324" 
d="M197 674v-613h83v-61h-231v61h85v493q-26 -42 -78 -69v71q27 13 54.5 48.5t42.5 69.5h44z" />
    <glyph glyph-name="two" unicode="2" horiz-adv-x="324" 
d="M277 0h-248v69q92 113 134.5 225.5t42.5 193.5q0 121 -58 121q-63 0 -63 -118l-63 10q0 17 1.5 32.5t9.5 43.5t20.5 47.5t38 34.5t60.5 15q40 0 67.5 -19t39 -50.5t16 -57t4.5 -52.5q0 -136 -88 -291q-42 -72 -98 -143h184v-61z" />
    <glyph glyph-name="three" unicode="3" horiz-adv-x="324" 
d="M16 137l62 16q5 -48 19 -70.5t47 -22.5q34 0 52.5 24.5t18.5 97.5q0 76 -17 105.5t-62 29.5h-33v64h33q33 0 49 22.5t16 99.5q0 63 -13.5 86.5t-39.5 23.5q-23 0 -37 -16.5t-20 -61.5l-61 11q2 12 4 23t10.5 32.5t21 36.5t35.5 27t52 12q117 0 117 -174q0 -55 -12 -89
t-22.5 -43t-27.5 -17q31 -9 50 -42q27 -46 27 -126q0 -18 -1.5 -35.5t-9 -47.5t-21 -52t-41 -39t-65.5 -17q-120 0 -131 142z" />
    <glyph glyph-name="four" unicode="4" horiz-adv-x="324" 
d="M244 0h-64v160h-159v55l153 458h70v-450h49v-63h-49v-160zM77 223h107v351z" />
    <glyph glyph-name="five" unicode="5" horiz-adv-x="324" 
d="M30 134l67 15q2 -22 4 -34t7.5 -27.5t16.5 -22.5t27 -7q35 0 51 38q16 45 16 124q0 100 -15.5 133t-45.5 33q-22 0 -35.5 -14t-17.5 -28.5t-10 -45.5l-54 8l14 361h209l-3 -65h-149l-10 -202q20 51 77 51q110 0 110 -229q0 -230 -136 -230q-115 0 -123 142z" />
    <glyph glyph-name="six" unicode="6" horiz-adv-x="324" 
d="M289 540l-61 -12q-8 84 -55 84q-31 0 -45.5 -33.5t-20.5 -103.5q-5 -61 -3 -104q25 66 81 66q37 0 62.5 -23.5t36 -62.5t14 -70.5t3.5 -65.5q0 -223 -131 -223q-44 0 -72.5 24t-44.5 92q-17 71 -17 221q0 48 1.5 84t6 79t14 73t24.5 56.5t38.5 40t54.5 13.5
q49 0 79 -35.5t35 -99.5zM109 212q0 -158 62 -158q61 0 61 162q0 158 -61 158q-33 0 -47.5 -38t-14.5 -124z" />
    <glyph glyph-name="seven" unicode="7" horiz-adv-x="324" 
d="M170 0h-75q-3 33 -3 72q0 193 66 373q31 88 71 157h-183l6 65h239v-51q-47 -78 -86.5 -217t-39.5 -311q0 -28 5 -88z" />
    <glyph glyph-name="eight" unicode="8" horiz-adv-x="324" 
d="M115 351q-73 60 -73 170q0 75 35 114.5t87 39.5q55 0 87 -34q34 -36 34 -106q0 -105 -76 -169q18 -17 29.5 -30t27.5 -38t24 -58.5t8 -74.5q0 -21 -2.5 -41.5t-11.5 -45.5t-23 -43t-40 -30.5t-61 -12.5q-40 0 -68 15.5t-42 41.5t-19.5 51.5t-5.5 52.5q0 111 90 198z
M168 397q56 50 56 126q0 93 -60 93q-57 0 -57 -95q0 -81 61 -124zM155 318q-62 -56 -62 -150q0 -118 69 -118q68 0 68 114q0 94 -75 154z" />
    <glyph glyph-name="nine" unicode="9" horiz-adv-x="324" 
d="M37 117l61 13q8 -77 52 -77q22 0 38 19t23 76q8 59 8 141q-9 -27 -30.5 -42.5t-50.5 -15.5q-115 0 -115 218q0 226 134 226q49 0 76 -32t36 -78q18 -90 18 -230q0 -191 -33 -267t-107 -76q-95 0 -110 125zM92 451q0 -83 14.5 -120.5t45.5 -37.5q35 0 48.5 38.5
t13.5 120.5q0 160 -64 160q-34 0 -46 -41.5t-12 -119.5z" />
    <glyph glyph-name="colon" unicode=":" horiz-adv-x="170" 
d="M125 0h-79v108h79v-108zM125 383h-79v108h79v-108z" />
    <glyph glyph-name="semicolon" unicode=";" horiz-adv-x="170" 
d="M82 -115h-34l31 115h-31v101h75v-95zM125 383h-79v108h79v-108z" />
    <glyph glyph-name="less" unicode="&#x3c;" horiz-adv-x="324" 
d="M310 539v-63l-242 -143l242 -143v-62l-296 178v55z" />
    <glyph glyph-name="equal" unicode="=" horiz-adv-x="324" 
d="M300 368h-276v51h276v-51zM300 248h-276v51h276v-51z" />
    <glyph glyph-name="greater" unicode="&#x3e;" horiz-adv-x="324" 
d="M14 539l296 -178v-55l-296 -178v62l242 143l-242 143v63z" />
    <glyph glyph-name="question" unicode="?" 
d="M169 0h-77v100h77v-100zM161 167h-66v75q0 86 36 124q38 40 50.5 65.5t12.5 84.5q0 45 -10 69.5t-43 24.5q-60 0 -60 -113l-63 4q4 173 128 173q118 0 118 -157q0 -63 -15 -100.5t-43 -68.5q-33 -36 -39 -50t-6 -53v-78z" />
    <glyph glyph-name="at" unicode="@" horiz-adv-x="409" 
d="M329 72l22 -38q-58 -52 -137 -52q-49 0 -85.5 23t-56.5 57t-31.5 84.5t-15 93.5t-3.5 95q0 350 194 350q53 0 90 -30t53.5 -80t23 -95.5t6.5 -96.5q0 -30 -3 -62.5t-12 -75.5t-31 -70.5t-53 -27.5q-35 0 -45 43q-11 -45 -57 -45q-78 0 -78 171q0 195 90 195q39 0 52 -40
l3 38h40l-14 -220q-2 -32 -2 -66q0 -32 17 -32q46 0 46 181q0 145 -35 207q-36 63 -93 63q-68 0 -106 -81.5t-38 -229.5q0 -306 153 -306q64 0 106 47zM233 314l3 99q-3 18 -5.5 28t-9 18t-15.5 8q-24 0 -32 -38t-8 -109q0 -70 5 -98q8 -31 26 -31q19 0 24 25q9 31 12 98z
" />
    <glyph glyph-name="A" unicode="A" 
d="M285 0h-67l-31 197h-91l-30 -197h-61l104 667h69zM102 257h78l-23 167q-11 78 -17 153q-4 -48 -16 -154z" />
    <glyph glyph-name="B" unicode="B" horiz-adv-x="324" 
d="M50 0v667h72q24 0 39 -1t41 -10t41 -25t27 -49.5t12 -80.5q0 -80 -30 -120q-15 -19 -41 -27q50 -13 70 -62.5t20 -102.5q0 -99 -42 -143q-28 -29 -58 -37.5t-85 -8.5h-66zM119 604v-223h23q76 0 76 110q0 59 -24 92q-16 21 -52 21h-23zM119 321v-258h17q48 0 71 25.5
t23 103.5q0 54 -14 85q-9 20 -22 30.5t-22.5 12t-25.5 1.5h-27z" />
    <glyph glyph-name="C" unicode="C" horiz-adv-x="307" 
d="M240 163l65 -13q-1 -26 -6.5 -50t-18 -50.5t-39 -42.5t-63.5 -16q-77 0 -109.5 75.5t-32.5 267.5q0 182 31.5 261t109.5 79q33 0 57 -12t37 -28.5t21.5 -42.5t11 -43t4.5 -41l-69 -11q-2 20 -3 28.5t-3.5 24.5t-6 23.5t-10 17t-15.5 13t-21 3.5q-44 0 -57 -67
q-12 -59 -12 -202q0 -154 14 -214q8 -34 21 -49.5t37 -15.5q57 0 57 105z" />
    <glyph glyph-name="D" unicode="D" horiz-adv-x="358" 
d="M50 0v667h87q22 0 36.5 -2t38.5 -10t43.5 -30.5t32.5 -57.5q34 -88 34 -235q0 -189 -48 -270q-37 -62 -128 -62h-96zM120 604v-541h31q49 0 69 45q29 60 29 226q0 154 -30 217q-12 25 -26.5 37.5t-24 14t-24.5 1.5h-24z" />
    <glyph glyph-name="E" unicode="E" 
d="M275 0h-225v666h217v-63h-147v-222h113v-65h-113v-253h155v-63z" />
    <glyph glyph-name="F" unicode="F" horiz-adv-x="255" 
d="M120 0h-70v667h212v-63h-142v-225h117v-65h-117v-314z" />
    <glyph glyph-name="G" unicode="G" horiz-adv-x="358" 
d="M317 -3h-43l-13 56q-24 -58 -88 -58q-43 0 -71 22t-42 69.5t-19 103t-5 139.5q0 184 29 264.5t115 80.5q79 0 110 -79q15 -37 17 -82l-65 -13q-7 59 -20.5 83.5t-41.5 24.5q-48 0 -61 -72q-10 -55 -10 -195q0 -150 11 -207q3 -14 5.5 -22t9.5 -22t19.5 -21.5t29.5 -7.5
q66 0 66 135v76h-65v63h132v-338z" />
    <glyph glyph-name="H" unicode="H" horiz-adv-x="358" 
d="M308 0h-70v321h-118v-321h-70v667h70v-283h118v283h70v-667z" />
    <glyph glyph-name="I" unicode="I" horiz-adv-x="170" 
d="M121 0h-71v667h71v-667z" />
    <glyph glyph-name="J" unicode="J" horiz-adv-x="204" 
d="M1 0v65q2 0 18 -1t17 -1q36 0 45 16.5t9 67.5v520h71v-505q0 -31 -1 -48t-6.5 -43.5t-16 -40.5t-32.5 -25t-53 -11q-26 0 -51 6z" />
    <glyph glyph-name="K" unicode="K" horiz-adv-x="307" 
d="M323 0h-73l-109 323l-21 -51v-272h-70v667h70v-296l119 296h67l-118 -281z" />
    <glyph glyph-name="L" unicode="L" horiz-adv-x="255" 
d="M256 0h-206v667h70v-604h136v-63z" />
    <glyph glyph-name="M" unicode="M" horiz-adv-x="443" 
d="M397 0h-61v370q0 1 1 41t1.5 83.5t0.5 51.5q-8 -60 -26 -176l-63 -370h-61l-61 358q-21 131 -27 188q0 -15 1.5 -97t1.5 -95v-354h-58v667h85l62 -347q15 -82 30 -203q14 110 30 199l60 351h84v-667z" />
    <glyph glyph-name="N" unicode="N" horiz-adv-x="358" 
d="M308 0h-58l-104 345q-25 80 -40 147q5 -115 5 -148v-344h-61v667h60l102 -355q38 -140 39 -146q-4 127 -4 144v357h61v-667z" />
    <glyph glyph-name="O" unicode="O" horiz-adv-x="358" 
d="M36 332q0 55 2 95t6.5 82t14.5 70t25.5 51t38.5 34t54 11q81 0 112.5 -76t31.5 -258q0 -59 -2 -101.5t-7 -84.5t-15 -70t-25.5 -50t-38.5 -32.5t-54 -10.5q-53 0 -83.5 29.5t-45 103.5t-14.5 207zM109 336v-1q0 -164 14 -219q15 -60 57 -60q22 0 34 13.5t20 44.5
q14 62 14 223q0 114 -8 173.5t-22 78t-40 18.5q-31 0 -45 -27q-24 -51 -24 -244z" />
    <glyph glyph-name="P" unicode="P" 
d="M120 0h-70v667h88q75 0 107 -41q42 -56 42 -158q0 -94 -29 -146.5t-106 -52.5h-32v-269zM120 604v-272h22q42 0 58 33t16 104q0 135 -72 135h-24z" />
    <glyph glyph-name="Q" unicode="Q" horiz-adv-x="358" 
d="M296 -84v-59q-21 -12 -52 -12q-42 0 -68.5 25t-26.5 79q0 24 4 45q-41 7 -65 34.5t-38 101t-14 202.5q0 85 4.5 140t18.5 105t43.5 74t74.5 24q81 0 112.5 -76t31.5 -258q0 -166 -20 -246t-81 -97q-8 -13 -8 -39q0 -54 43 -54q22 0 41 11zM109 336q0 -165 14 -220
q14 -59 58 -59q22 0 34 13t19 44q14 62 14 223q0 114 -8 173.5t-22 78t-40 18.5q-31 0 -44 -27q-25 -51 -25 -244z" />
    <glyph glyph-name="R" unicode="R" horiz-adv-x="324" 
d="M308 0h-74l-70 292h-44v-292h-70v667h96q18 0 27.5 -0.5t27.5 -4t29 -10.5t25 -20.5t22 -33t13.5 -50.5t5.5 -70q0 -81 -17.5 -118t-48.5 -53zM120 604v-249h33q40 0 56 26t16 101q0 44 -5.5 70.5t-19 36.5t-23 12.5t-28.5 2.5h-29z" />
    <glyph glyph-name="S" unicode="S" 
d="M1 153l66 10q1 -45 18.5 -76.5t51.5 -31.5q70 0 70 120q0 42 -14.5 74t-26.5 43.5t-31 24.5q-28 20 -42.5 32.5t-36.5 37.5t-32 57t-10 72q0 72 34 115t94 43q28 0 50 -10t35.5 -24.5t22.5 -35.5t13 -38.5t6 -36.5l-66 -11q-3 19 -5.5 30.5t-9 28t-19 25t-30.5 8.5
q-55 0 -55 -78q0 -80 62 -125q51 -37 70 -55t35 -47q29 -53 29 -118q0 -83 -35 -140q-35 -56 -110 -56q-67 0 -99 45.5t-35 116.5z" />
    <glyph glyph-name="T" unicode="T" horiz-adv-x="221" 
d="M145 0h-70v604h-84v63h239v-63h-85v-604z" />
    <glyph glyph-name="U" unicode="U" horiz-adv-x="341" 
d="M45 667h70v-521q0 -18 0.5 -26.5t3 -22.5t8 -20.5t16.5 -12t27 -5.5q20 0 32 6.5t17 21t6 26t1 33.5v521h70v-516q0 -25 -1 -39.5t-7 -39.5t-18 -39.5t-36.5 -26t-59.5 -11.5q-37 0 -63 10.5t-38.5 24t-19 38.5t-7.5 40t-1 43v516z" />
    <glyph glyph-name="V" unicode="V" 
d="M177 0h-65l-105 667h72l48 -348q1 -9 9.5 -83.5t10.5 -92.5q9 114 19 172l50 352h67z" />
    <glyph glyph-name="W" unicode="W" horiz-adv-x="443" 
d="M359 0h-61l-50 326q-6 39 -24 197q-8 -93 -22 -191l-48 -332h-60l-87 667h72l36 -339q12 -116 15 -193q8 129 16 188l46 344h65l48 -340q5 -36 19 -191q4 108 12 192l36 339h64z" />
    <glyph glyph-name="X" unicode="X" horiz-adv-x="273" 
d="M275 0h-75l-67 269l-69 -269h-66l105 353l-90 314h74l52 -214l55 214h66l-91 -302z" />
    <glyph glyph-name="Y" unicode="Y" horiz-adv-x="273" 
d="M170 0h-70v283l-107 384h73l72 -301l74 301h68l-110 -384v-283z" />
    <glyph glyph-name="Z" unicode="Z" horiz-adv-x="255" 
d="M245 667v-56l-172 -548h177v-63h-245v70l167 534h-159v63h232z" />
    <glyph glyph-name="bracketleft" unicode="[" horiz-adv-x="204" 
d="M173 -127h-116v833h116v-58h-51v-719h51v-56z" />
    <glyph glyph-name="backslash" unicode="\" horiz-adv-x="256" 
d="M240 -166l-50 -1l-217 833h50z" />
    <glyph glyph-name="bracketright" unicode="]" horiz-adv-x="204" 
d="M147 -127h-116v56h51v719h-51v58h116v-833z" />
    <glyph glyph-name="asciicircum" unicode="^" horiz-adv-x="324" 
d="M328 378h-63l-103 242l-103 -242h-62l138 296h55z" />
    <glyph glyph-name="underscore" unicode="_" horiz-adv-x="500" 
d="M0 -75h500v-50h-500v50z" />
    <glyph glyph-name="grave" unicode="`" horiz-adv-x="307" 
d="M153 546l-97 83l44 42l88 -96z" />
    <glyph glyph-name="a" unicode="a" 
d="M250 324v-239q0 -72 9 -85h-60q-7 21 -7 46q-20 -53 -76 -53q-30 0 -50.5 17t-29 44.5t-11 47.5t-2.5 41q0 70 27.5 116.5t88.5 46.5q15 0 50 -7v17v39.5t-1.5 30.5t-4.5 26t-8 16.5t-13 11.5t-19 3q-51 0 -51 -80l-61 8q5 58 34.5 93.5t82.5 35.5q29 0 54 -13t34 -36
q10 -24 12 -47.5t2 -79.5zM189 162v80q-24 8 -45 8q-28 0 -43.5 -24t-15.5 -90q0 -83 44 -83q30 0 45 36t15 73z" />
    <glyph glyph-name="b" unicode="b" 
d="M75 0h-39v667h64v-215q21 45 65 45q28 0 48 -18.5t30.5 -54.5t15 -79t4.5 -101q0 -126 -22.5 -188.5t-81.5 -62.5q-46 0 -71 47zM100 375v-174q0 -84 8 -118.5t39 -34.5t39 36q10 34 10 161q0 102 -10 142q-12 51 -44 51q-17 0 -29.5 -15t-12.5 -48z" />
    <glyph glyph-name="c" unicode="c" horiz-adv-x="255" 
d="M186 145l59 -4q-1 -32 -5 -55t-14 -46.5t-31 -36t-52 -12.5q-68 0 -92 59.5t-24 196.5q0 134 27.5 193.5t87.5 59.5q33 0 55 -14t31.5 -40.5t13 -47t4.5 -52.5l-62 -6q-1 22 -2 35t-4.5 31.5t-12.5 27.5t-23 9q-30 0 -41 -55q-1 -3 -1 -4q-6 -44 -6 -138q0 -104 7 -142
q10 -55 44 -55q24 0 32.5 24t8.5 72z" />
    <glyph glyph-name="d" unicode="d" 
d="M253 668v-668h-58v47q-22 -53 -68 -53q-55 0 -77.5 61t-22.5 183q0 55 3.5 96t13.5 81t31.5 61t53.5 21q42 0 60 -41v212h64zM189 112v210q0 29 -1 45t-4.5 34.5t-12.5 27t-23 8.5t-24 -9t-13 -17t-5 -15q-12 -42 -12 -160q0 -96 8 -137q8 -50 42 -50q18 0 31.5 17.5
t13.5 45.5z" />
    <glyph glyph-name="e" unicode="e" horiz-adv-x="273" 
d="M197 128l57 -10q-15 -127 -111 -127q-60 0 -88 54t-28 200q0 128 26.5 191.5t92.5 63.5q25 0 44.5 -9t31.5 -27t20 -40t12 -54.5t5.5 -63t1.5 -72.5h-167q0 -104 8 -143q11 -45 43 -45q41 0 52 82zM94 290h105q-1 78 -11 116.5t-41 38.5q-17 0 -27.5 -10.5t-18 -46
t-7.5 -98.5z" />
    <glyph glyph-name="f" unicode="f" horiz-adv-x="170" 
d="M115 0h-64v433h-39v60h41v68q0 21 1.5 35t8 36t23.5 33.5t44 11.5q19 0 46 -5l-1 -55q-21 3 -25 3q-19 0 -28.5 -12t-9.5 -47v-68h51v-60h-48v-433z" />
    <glyph glyph-name="g" unicode="g" 
d="M282 556v-63q-2 0 -7 0.5t-10 0.5q-11 0 -19 -2t-13.5 -11t-4.5 -24q37 -42 37 -126q0 -70 -28.5 -113t-81.5 -43q-22 0 -39 7q-30 -18 -30 -39q0 -17 12.5 -27.5t25.5 -13.5t40 -7q18 -3 29 -5.5t33.5 -11.5t35.5 -22t24 -38t11 -57q0 -68 -40.5 -105.5t-102.5 -37.5
q-63 0 -99 36t-36 89q0 67 66 106q-55 24 -55 74q0 43 55 81q-47 39 -47 134q0 75 31 117t79 42q25 0 46 -12q-3 47 33 63q19 10 55 8zM152 232q31 0 41.5 28t10.5 77q0 102 -53 102q-51 0 -51 -105q0 -102 52 -102zM124 39q-42 -42 -42 -86q0 -32 19.5 -55.5t58.5 -23.5
q29 0 51.5 18t22.5 61q0 33 -15 52.5t-36 24.5q-4 1 -29.5 4.5t-29.5 4.5z" />
    <glyph glyph-name="h" unicode="h" 
d="M257 0h-64v381q0 17 -1.5 26.5t-11.5 20t-30 10.5q-17 0 -32 -11t-18 -32v-395h-64v667h64v-212q23 42 72 42q24 0 41 -9t25.5 -19.5t13 -29.5t5 -29.5t0.5 -28.5v-381z" />
    <glyph glyph-name="i" unicode="i" horiz-adv-x="136" 
d="M100 0h-64v493h64v-493zM100 582h-64v85h64v-85z" />
    <glyph glyph-name="j" unicode="j" horiz-adv-x="136" 
d="M-19 -168v60q18 -2 22 -2q19 0 25.5 11t6.5 46v546h65v-546q0 -24 -0.5 -36t-5 -30.5t-13 -28t-25 -17t-41.5 -7.5q-13 0 -34 4zM100 582h-65v85h65v-85z" />
    <glyph glyph-name="k" unicode="k" horiz-adv-x="256" 
d="M265 0h-68l-79 245l-18 -37v-208h-64v667h64v-389l93 215h62l-93 -193z" />
    <glyph glyph-name="l" unicode="l" horiz-adv-x="136" 
d="M100 0h-64v667h64v-667z" />
    <glyph glyph-name="m" unicode="m" horiz-adv-x="426" 
d="M393 373v-373h-64v373q0 20 -1.5 31t-10.5 22.5t-28 11.5q-42 0 -42 -42v-396h-64v373q0 22 -1 32.5t-10 21.5t-27 11q-44 0 -44 -42v-396h-64v493h56v-52q20 56 76 56q52 0 69 -52q21 52 76 52q43 0 65 -35q14 -23 14 -89z" />
    <glyph glyph-name="n" unicode="n" 
d="M257 0h-64v386q0 55 -42 55t-52 -43v-398h-63v493h55v-50q21 57 81 57q24 0 41.5 -9t25.5 -20.5t12.5 -30t5 -28.5t0.5 -26v-386z" />
    <glyph glyph-name="o" unicode="o" 
d="M27 249q0 129 25.5 190t93.5 61q63 0 90 -57t27 -203q0 -76 -8 -126.5t-24 -76t-35.5 -35t-48.5 -9.5q-66 0 -93 53.5t-27 202.5zM94 247q0 -127 11 -165q10 -34 40 -34t40 34q11 36 11 172q0 121 -11 157q-10 34 -39 34q-22 0 -33 -17q-19 -30 -19 -181z" />
    <glyph glyph-name="p" unicode="p" 
d="M100 -176h-64v669h58v-58q23 62 71 62q50 0 74 -60t24 -188q0 -121 -22.5 -188.5t-79.5 -67.5q-45 0 -61 40v-209zM100 378v-282q0 -14 12 -31t36 -17q30 0 38 40q10 37 10 149q0 120 -13 162q-11 39 -40 39q-22 0 -32.5 -20t-10.5 -40z" />
    <glyph glyph-name="q" unicode="q" 
d="M253 -176h-64v202q-18 -32 -61 -32q-52 0 -76.5 53.5t-24.5 186.5q0 55 3 94.5t13 81.5t32 64.5t56 22.5q47 0 74 -46l16 40h32v-667zM189 103v272q0 24 -11.5 43.5t-33.5 19.5q-27 0 -40 -41q-10 -39 -10 -158q0 -94 7 -135q7 -55 41 -55q21 0 34 18.5t13 35.5z" />
    <glyph glyph-name="r" unicode="r" horiz-adv-x="188" 
d="M100 0h-64v493h58v-63q22 67 70 67q5 0 29 -4v-68q-15 3 -31.5 0.5t-30 -9t-22.5 -29.5t-9 -60v-327z" />
    <glyph glyph-name="s" unicode="s" horiz-adv-x="239" 
d="M8 113l59 11q4 -74 49 -74q47 0 47 77q0 36 -13 57t-49 49q-29 22 -44 36.5t-29 43.5t-14 66q0 59 30.5 90t73.5 31q36 0 66.5 -24t37.5 -88l-56 -11q-3 62 -48 62q-41 0 -41 -49q0 -22 8.5 -39.5t17.5 -26.5t29 -25q54 -42 76.5 -74.5t22.5 -87.5q0 -90 -50 -126
q-24 -18 -66 -18q-101 0 -107 120z" />
    <glyph glyph-name="t" unicode="t" horiz-adv-x="187" 
d="M178 54v-57q-15 -3 -40 -3q-50 0 -65.5 24.5t-15.5 83.5v331h-39v60h41v122l60 7v-129h50v-60h-48v-335q0 -15 1 -23t9 -16t24 -8q13 0 23 3z" />
    <glyph glyph-name="u" unicode="u" 
d="M254 0h-57v49q-22 -56 -82 -56q-28 0 -46 10.5t-25 32t-9 38t-2 43.5v376h64v-375q0 -16 1 -24.5t4.5 -20.5t12.5 -17.5t24 -5.5q20 0 34.5 12t16.5 30v401h64v-493z" />
    <glyph glyph-name="v" unicode="v" horiz-adv-x="239" 
d="M150 0h-59l-94 493h68l42 -275q12 -77 15 -111q7 60 15 108l45 278h59z" />
    <glyph glyph-name="w" unicode="w" horiz-adv-x="358" 
d="M287 0h-53l-38 229q-9 57 -17 129q-7 -64 -16 -128l-32 -230h-52l-75 493h63l29 -229q11 -79 15 -140q5 45 5 60q5 47 9 77l29 232h49l36 -232q14 -90 19 -137q1 21 3.5 50.5t5.5 54.5t3 27l29 237h55z" />
    <glyph glyph-name="x" unicode="x" horiz-adv-x="255" 
d="M248 0h-64l-61 195l-57 -195h-59l87 259l-80 234h64l49 -164l50 164h57l-77 -227z" />
    <glyph glyph-name="y" unicode="y" horiz-adv-x="256" 
d="M23 -172v57q15 -3 28 -3q21 0 28 15t15 66l9 63l-97 467h66l35 -199q20 -109 25 -152q5 51 22 148l35 203h60l-97 -533q-6 -31 -9.5 -46t-10.5 -36t-16 -30.5t-24 -17t-35 -7.5q-19 0 -34 5z" />
    <glyph glyph-name="z" unicode="z" horiz-adv-x="204" 
d="M197 0h-189v60l120 374h-110v59h179v-47l-126 -389h126v-57z" />
    <glyph glyph-name="braceleft" unicode="{" horiz-adv-x="204" 
d="M177 -77v-52q-19 -1 -32 -1q-22 0 -37 7t-22 15.5t-11 25t-4.5 26t-0.5 27.5v220q0 20 -1.5 31.5t-10 24t-25.5 12.5v61q17 0 26 12t10 23.5t1 32.5v213q0 72 20.5 90.5t88.5 14.5v-52q-26 -1 -35.5 -12t-9.5 -44v-212q0 -27 -1 -42t-9.5 -32.5t-25.5 -23.5
q17 -6 25.5 -23t9.5 -30.5t1 -36.5v-226q0 -26 8 -37.5t35 -11.5z" />
    <glyph glyph-name="bar" unicode="|" horiz-adv-x="500" 
d="M218 750h63v-1000h-63v1000z" />
    <glyph glyph-name="braceright" unicode="}" horiz-adv-x="204" 
d="M27 -129v52q28 -1 35.5 11t7.5 37v227q0 23 1 36t9.5 30.5t25.5 23.5q-17 6 -25.5 23.5t-9.5 32t-1 42.5v212q0 31 -8.5 43t-36.5 13v52q68 3 88.5 -15.5t20.5 -89.5v-213q0 -21 1 -32.5t10 -23.5t26 -12v-61q-17 0 -25.5 -12t-10 -24t-1.5 -32v-220q0 -18 -0.5 -28
t-4.5 -26.5t-11.5 -24.5t-22 -15t-36.5 -7q-12 0 -32 1z" />
    <glyph glyph-name="asciitilde" unicode="~" horiz-adv-x="324" 
d="M19 272l-35 24q13 23 20 34.5t20.5 27.5t29 23t35.5 7q28 0 83 -27q48 -24 72 -24q41 0 60 42l38 -23q-8 -15 -13.5 -23.5t-18.5 -24t-31 -23.5t-40 -8q-25 0 -102 36q-31 15 -51 15q-38 0 -67 -56z" />
    <glyph glyph-name="uni00A0" unicode="&#xa0;" horiz-adv-x="162" 
 />
    <glyph glyph-name="exclamdown" unicode="&#xa1;" horiz-adv-x="222" 
d="M71 486h77v-103h-77v103zM86 321h51l13 -500h-76z" />
    <glyph glyph-name="cent" unicode="&#xa2;" horiz-adv-x="324" 
d="M189 2h-41v108q-44 6 -67 57q-23 55 -23 170q0 224 90 236v86h41v-85q75 -20 83 -152l-57 -10q-4 105 -48 105q-28 0 -36 -45q-5 -27 -5 -124q0 -123 14 -156q9 -24 30 -24q14 0 22.5 7t13.5 24.5t7 30.5t4 40l55 -6q-3 -24 -4.5 -37.5t-7.5 -37.5t-14 -37.5t-23 -26.5
t-34 -16v-107z" />
    <glyph glyph-name="sterling" unicode="&#xa3;" horiz-adv-x="324" 
d="M4 0v64h58q12 12 19 23t13 39.5t6 70.5q0 54 -7 119h-63v58h57q-9 74 -9 124q0 177 116 177q51 0 77.5 -32.5t33.5 -77.5l-61 -17q-3 18 -6.5 28.5t-14 21.5t-27.5 11q-20 0 -31 -16.5t-13.5 -37.5t-2.5 -54q0 -55 8 -127h78v-58h-72q4 -34 4 -72q0 -125 -53 -180h38
q20 0 31.5 1.5t28 7.5t25.5 22.5t10 42.5l64 -13q-3 -36 -16.5 -61t-28 -37t-37.5 -18.5t-36 -7.5t-34 -1h-155z" />
    <glyph glyph-name="currency" unicode="&#xa4;" horiz-adv-x="324" 
d="M267 267l40 -40l-39 -39l-40 40q-36 -19 -66 -19t-66 19l-40 -40l-39 39l40 40q-19 36 -19 67q0 30 19 66l-40 40l39 39l40 -40q36 19 66 19q31 0 66 -19l40 40l39 -39l-40 -40q19 -38 19 -66q0 -31 -19 -67zM162 263q29 0 49.5 20.5t20.5 49.5q0 30 -20.5 50.5
t-49.5 20.5t-49.5 -20.5t-20.5 -50.5q0 -29 20.5 -49.5t49.5 -20.5z" />
    <glyph glyph-name="yen" unicode="&#xa5;" horiz-adv-x="324" 
d="M192 0h-65v257h-99v45h93l-12 45h-81v45h67l-75 274h63l79 -301l80 301h61l-79 -274h71v-45h-85l-13 -45h98v-45h-103v-257z" />
    <glyph glyph-name="brokenbar" unicode="&#xa6;" horiz-adv-x="500" 
d="M218 675h63v-350h-63v350zM218 175h63v-350h-63v350z" />
    <glyph glyph-name="section" unicode="&#xa7;" horiz-adv-x="324" 
d="M51 29l57 12q0 -83 52 -83q50 0 50 74q0 43 -17 65.5t-70 62.5q-67 52 -67 135q0 74 51 120q-51 47 -51 121q0 60 29 99.5t80 39.5q88 0 101 -113l-57 -14q-4 69 -47 69q-19 0 -32.5 -17t-13.5 -49q0 -35 15 -55t63 -59q23 -18 37 -31.5t28 -47t14 -76.5q0 -77 -43 -116
q43 -45 43 -128q0 -61 -28 -99t-85 -38q-99 0 -109 128zM189 195q21 25 21 79q0 73 -59 112q-33 -21 -33 -76q0 -30 15 -56.5t28.5 -38.5t27.5 -20z" />
    <glyph glyph-name="dieresis" unicode="&#xa8;" horiz-adv-x="307" 
d="M49 598q0 16 12 29t30 13q17 0 29.5 -12.5t12.5 -29.5t-12 -30.5t-30 -13.5q-15 0 -28.5 12t-13.5 32zM173 598q0 16 12.5 29t29.5 13t29.5 -12.5t12.5 -29.5q0 -18 -12 -31t-30 -13q-15 0 -28.5 12t-13.5 32z" />
    <glyph glyph-name="copyright" unicode="&#xa9;" horiz-adv-x="639" 
d="M356 240l53 -9q-5 -103 -86 -103q-53 0 -74 47t-21 159q0 105 20.5 154.5t74.5 49.5q23 0 39.5 -8t25 -18.5t14 -27.5t7 -27t2.5 -26l-55 -9q-2 25 -3.5 36t-8.5 20.5t-20 9.5q-23 0 -30 -35q-7 -34 -7 -117q0 -89 8 -124q8 -34 31 -34q30 0 30 62zM36 326q0 154 87 254
t199 100q108 0 194 -97.5t86 -248.5q0 -148 -81.5 -247.5t-200.5 -99.5q-114 0 -199 95t-85 244zM95 329q0 -131 67.5 -209.5t156.5 -78.5q100 0 162.5 84t62.5 202q0 120 -65.5 210.5t-160.5 90.5q-96 0 -159.5 -90t-63.5 -209z" />
    <glyph glyph-name="ordfeminine" unicode="&#xaa;" horiz-adv-x="324" 
d="M252 344h-48q-5 16 -5 36q-19 -41 -56 -41q-41 0 -57 30.5t-16 68.5q0 13 2 25.5t9 35.5t27.5 37t52.5 14q10 0 35 -5q0 53 -4.5 69.5t-26.5 16.5q-35 0 -35 -53l-53 7q3 49 30 69.5t61 20.5q23 0 39 -7.5t24 -17t12 -28t4.5 -30.5t0.5 -35v-154q0 -46 4 -59zM196 448v53
q-28 5 -30 5q-9 0 -14.5 -2t-13 -8t-11 -21.5t-3.5 -39.5q0 -49 30 -49q35 0 42 62z" />
    <glyph glyph-name="guillemotleft" unicode="&#xab;" horiz-adv-x="256" 
d="M226 117h-48l-68 143l68 138h48l-51 -138zM124 117h-48l-68 143l68 138h48l-51 -138z" />
    <glyph glyph-name="logicalnot" unicode="&#xac;" horiz-adv-x="324" 
d="M249 248v120h-225v51h276v-171h-51z" />
    <glyph glyph-name="uni00AD" unicode="&#xad;" horiz-adv-x="204" 
d="M171 224h-138v60h138v-60z" />
    <glyph glyph-name="registered" unicode="&#xae;" horiz-adv-x="324" 
d="M225 389h-34l-24 93h-19v-93h-33v220h44q12 0 19.5 -1t18.5 -6.5t17 -19.5t6 -36q0 -20 -4 -32t-8 -15.5t-12 -9.5zM148 582v-73h16q12 0 17.5 6.5t5.5 30.5q0 13 -2 21t-6 11t-7.5 3.5t-9.5 0.5h-14zM17 493q0 79 44 130t102 51q56 0 100 -50t44 -127q0 -76 -41.5 -127
t-103.5 -51q-58 0 -101.5 48.5t-43.5 125.5zM53 494q0 -64 32.5 -102t76.5 -38q49 0 79 41t30 98q0 58 -31.5 102.5t-79.5 44.5q-46 0 -76.5 -43.5t-30.5 -102.5z" />
    <glyph glyph-name="macron" unicode="&#xaf;" horiz-adv-x="307" 
d="M234 572h-162v52h162v-52z" />
    <glyph glyph-name="degree" unicode="&#xb0;" horiz-adv-x="324" 
d="M27 537q0 58 40 98t95 40t95 -40t40 -98q0 -57 -39.5 -97.5t-95.5 -40.5t-95.5 40t-39.5 98zM81 537q0 -38 23.5 -64.5t57.5 -26.5q35 0 58 27t23 64t-23.5 64t-57.5 27q-33 0 -57 -26.5t-24 -64.5z" />
    <glyph glyph-name="plusminus" unicode="&#xb1;" horiz-adv-x="324" 
d="M187 129h-51v179h-112v51h112v179h51v-179h112v-51h-112v-179zM299 24h-275v51h275v-51z" />
    <glyph glyph-name="two.superior" unicode="&#xb2;" horiz-adv-x="239" 
d="M203 310v-43h-179v45q121 134 121 249q0 65 -35 65q-39 0 -39 -70l-52 7q5 108 94 108q45 0 66 -25q26 -31 26 -84q0 -54 -32 -120t-94 -132h124z" />
    <glyph glyph-name="three.superior" unicode="&#xb3;" horiz-adv-x="239" 
d="M15 352l50 11q4 -30 12 -43t30 -13q21 0 33 13t12 56q0 45 -11.5 60.5t-38.5 15.5h-26v44h26q14 0 21 2.5t14 18.5t7 48q0 36 -8 49t-24 13t-25 -9.5t-13 -37.5l-50 8q13 83 90 83q85 0 85 -106q0 -40 -9.5 -58t-28.5 -29q48 -27 48 -100q0 -17 -3.5 -34t-13 -37
t-30.5 -32.5t-52 -12.5q-88 0 -95 90z" />
    <glyph glyph-name="acute" unicode="&#xb4;" horiz-adv-x="307" 
d="M165 546l-35 29l87 96l44 -42z" />
    <glyph glyph-name="mu" unicode="&#xb5;" 
d="M254 0h-57v49q-12 -56 -54 -56q-32 0 -46 32v-201h-64v669h64v-386q0 -57 46 -57q18 0 31.5 12t15.5 30v401h64v-493z" />
    <glyph glyph-name="paragraph" unicode="&#xb6;" horiz-adv-x="341" 
d="M297 667v-834h-51v777h-45v-777h-51v464q-23 0 -36 1t-32.5 7.5t-34.5 20.5q-54 46 -54 155q0 51 15 93t39 63q33 30 103 30h147z" />
    <glyph glyph-name="periodcentered" unicode="&#xb7;" horiz-adv-x="171" 
d="M125 278h-79v108h79v-108z" />
    <glyph glyph-name="cedilla" unicode="&#xb8;" horiz-adv-x="307" 
d="M100 -152l12 34q17 -12 37 -12q29 0 29 31q0 18 -9 26.5t-20.5 7.5t-22.5 -1l17 66h27l-8 -30q24 0 42 -15q23 -17 23 -54q0 -32 -21 -50.5t-53 -18.5t-53 16z" />
    <glyph glyph-name="one.superior" unicode="&#xb9;" horiz-adv-x="239" 
d="M212 267h-168v43h59v282q-22 -25 -59 -40v49q21 9 42 29.5t32 41.5h37v-362h57v-43z" />
    <glyph glyph-name="ordmasculine" unicode="&#xba;" horiz-adv-x="324" 
d="M70 508q0 83 19 125t73 42q52 0 72 -39.5t20 -132.5q0 -94 -21.5 -129t-70.5 -35q-52 0 -72 38t-20 131zM127 508q0 -82 8 -107q8 -19 27 -19t27 19q8 25 8 114q0 73 -8 98q-7 19 -27 19q-19 0 -27 -19q-8 -24 -8 -105z" />
    <glyph glyph-name="guillemotright" unicode="&#xbb;" horiz-adv-x="256" 
d="M78 117h-49l52 138l-52 143h49l67 -143zM180 117h-49l52 138l-52 143h49l67 -143z" />
    <glyph glyph-name="onequarter" unicode="&#xbc;" horiz-adv-x="545" 
d="M372 138h64v186zM221 0h-41l198 666h42zM484 0h-50v94h-108v37l105 272h53v-265h33v-44h-33v-94zM209 267h-168v43h59v282q-21 -24 -59 -40v49q21 9 42 29.5t32 41.5h37v-362h57v-43z" />
    <glyph glyph-name="onehalf" unicode="&#xbd;" horiz-adv-x="545" 
d="M151 672v-362h57v-43h-168v43h59v282q-21 -24 -59 -40v49q21 9 42 29.5t32 41.5h37zM392 666l-199 -666h-41l198 666h42zM514 43v-43h-180v45q66 70 93.5 137t27.5 112q0 65 -34 65q-40 0 -40 -70l-52 7q2 50 25 79t70 29q44 0 65 -25q26 -32 26 -85q0 -61 -36 -127.5
t-90 -123.5h125z" />
    <glyph glyph-name="threequarters" unicode="&#xbe;" horiz-adv-x="545" 
d="M373 138h64v187zM209 0h-42l199 666h42zM485 0h-50v94h-108v37l105 273h53v-266h33v-44h-33v-94zM13 352l50 11q4 -30 12 -43t30 -13q21 0 33 13t12 56q0 45 -11.5 60.5t-38.5 15.5h-26v44h26q13 0 20 2.5t14 18.5t7 48q0 36 -8 49t-24 13t-24.5 -9.5t-12.5 -37.5l-50 8
q13 83 90 83q84 0 84 -106q0 -40 -9 -57.5t-28 -29.5q48 -27 48 -100q0 -17 -3.5 -34t-13 -37t-30.5 -32.5t-52 -12.5q-88 0 -95 90z" />
    <glyph glyph-name="questiondown" unicode="&#xbf;" 
d="M121 487h77v-100h-77v100zM128 320h66v-75q0 -86 -35 -124q-39 -39 -51.5 -65t-12.5 -84q0 -46 10.5 -70.5t43.5 -24.5q59 0 59 113l63 -4q-4 -173 -128 -173q-118 0 -118 158q0 63 15.5 100t43.5 69q32 36 38 49.5t6 52.5v78z" />
    <glyph glyph-name="Agrave" unicode="&#xc0;" 
d="M285 0h-67l-31 197h-91l-30 -197h-61l104 667h69zM102 257h78l-23 167q-11 78 -17 153q-4 -48 -16 -154zM151 717l-115 55l32 53l108 -70z" />
    <glyph glyph-name="Aacute" unicode="&#xc1;" 
d="M285 0h-67l-31 197h-91l-30 -197h-61l104 667h69zM102 257h78l-23 167q-11 78 -17 153q-4 -48 -16 -154zM126 717l-25 38l108 70l32 -53z" />
    <glyph glyph-name="Acircumflex" unicode="&#xc2;" 
d="M285 0h-67l-31 197h-91l-30 -197h-61l104 667h69zM102 257h78l-23 167q-11 78 -17 153q-4 -48 -16 -154zM208 712l-70 43l-70 -43l-30 31l100 75l101 -75z" />
    <glyph glyph-name="Atilde" unicode="&#xc3;" 
d="M285 0h-67l-31 197h-91l-30 -197h-61l104 667h69zM102 257h78l-23 167q-11 78 -17 153q-4 -48 -16 -154zM73 728l-28 21q20 54 59 54q22 0 46 -18q22 -14 33 -14q17 0 29 23l29 -20q-17 -55 -60 -55q-22 0 -44 16q-20 17 -34 17q-18 0 -30 -24z" />
    <glyph glyph-name="Adieresis" unicode="&#xc4;" 
d="M285 0h-67l-31 197h-91l-30 -197h-61l104 667h69zM102 257h78l-23 167q-11 78 -17 153q-4 -48 -16 -154zM39 761q0 16 12 29t30 13t30 -12.5t12 -29.5t-12 -30.5t-29 -13.5q-16 0 -29.5 12t-13.5 32zM163 761q0 16 12 29t30 13t30 -12.5t12 -29.5t-12 -30.5t-29 -13.5
q-16 0 -29.5 12t-13.5 32z" />
    <glyph glyph-name="Aring" unicode="&#xc5;" 
d="M285 0h-67l-31 197h-91l-30 -197h-61l104 667h69zM102 257h78l-23 167q-11 78 -17 153q-4 -48 -16 -154zM68 772q0 30 23 51t53 21t52.5 -21t22.5 -54q0 -31 -21.5 -52.5t-53.5 -21.5q-28 0 -52 19t-24 58zM111 769q0 -16 10.5 -24t22.5 -8q13 0 22.5 9t9.5 23t-9.5 24
t-22.5 10q-14 0 -23.5 -10t-9.5 -24z" />
    <glyph glyph-name="AE" unicode="&#xc6;" horiz-adv-x="409" 
d="M393 0h-224v207h-95l-60 -207h-66l207 667h230v-63h-147v-221h113v-65h-113v-255h155v-63zM92 271h77v288z" />
    <glyph glyph-name="Ccedilla" unicode="&#xc7;" horiz-adv-x="307" 
d="M115 -152l12 35q23 -13 36 -13q31 0 31 32q0 18 -9.5 26.5t-21 7.5t-22.5 -1l15 58q-64 10 -92 86t-28 256q0 181 31.5 260t109.5 79q33 0 57 -12t37 -28.5t21.5 -42.5t11 -43t4.5 -41l-69 -11q-2 20 -3 28.5t-3.5 24.5t-6 23.5t-10 17t-15.5 13t-21 3.5q-44 0 -57 -67
q-12 -59 -12 -202q0 -154 14 -214q8 -34 21 -49.5t37 -15.5q57 0 57 105l65 -13q-1 -26 -6.5 -50t-18 -50t-37.5 -42t-60 -17l-4 -20q29 -4 42 -15q22 -19 22 -55q0 -32 -21 -50.5t-53 -18.5t-54 16z" />
    <glyph glyph-name="Egrave" unicode="&#xc8;" 
d="M275 0h-225v666h217v-63h-147v-222h113v-65h-113v-253h155v-63zM181 717l-115 55l32 53l108 -70z" />
    <glyph glyph-name="Eacute" unicode="&#xc9;" 
d="M275 0h-225v666h217v-63h-147v-222h113v-65h-113v-253h155v-63zM161 717l-25 38l108 70l32 -53z" />
    <glyph glyph-name="Ecircumflex" unicode="&#xca;" 
d="M275 0h-225v666h217v-63h-147v-222h113v-65h-113v-253h155v-63zM223 712l-70 43l-70 -43l-30 31l100 75l101 -75z" />
    <glyph glyph-name="Edieresis" unicode="&#xcb;" 
d="M275 0h-225v666h217v-63h-147v-222h113v-65h-113v-253h155v-63zM54 761q0 16 12 29t30 13t30 -12.5t12 -29.5t-12 -30.5t-29 -13.5q-16 0 -29.5 12t-13.5 32zM178 761q0 16 12 29t30 13t30 -12.5t12 -29.5t-12 -30.5t-29 -13.5q-16 0 -29.5 12t-13.5 32z" />
    <glyph glyph-name="Igrave" unicode="&#xcc;" horiz-adv-x="170" 
d="M121 0h-71v667h71v-667zM81 717l-115 55l32 53l108 -70z" />
    <glyph glyph-name="Iacute" unicode="&#xcd;" horiz-adv-x="170" 
d="M121 0h-71v667h71v-667zM66 717l-25 38l108 70l32 -53z" />
    <glyph glyph-name="Icircumflex" unicode="&#xce;" horiz-adv-x="170" 
d="M121 0h-71v667h71v-667zM153 712l-70 43l-70 -43l-30 31l100 75l101 -75z" />
    <glyph glyph-name="Idieresis" unicode="&#xcf;" horiz-adv-x="170" 
d="M121 0h-71v667h71v-667zM-21 761q0 16 12 29t30 13t30 -12.5t12 -29.5t-12 -30.5t-29 -13.5q-16 0 -29.5 12t-13.5 32zM103 761q0 16 12 29t30 13t30 -12.5t12 -29.5t-12 -30.5t-29 -13.5q-16 0 -29.5 12t-13.5 32z" />
    <glyph glyph-name="Eth" unicode="&#xd0;" horiz-adv-x="358" 
d="M50 0v326h-42v53h42v288h87q22 0 36.5 -2t38.5 -10t43.5 -30.5t32.5 -57.5q34 -91 34 -234q0 -190 -48 -271q-37 -62 -128 -62h-96zM194 379v-53h-74v-263h31q47 0 69 45q29 60 29 226q0 152 -30 217q-12 25 -26.5 37.5t-24 14t-24.5 1.5h-24v-225h74z" />
    <glyph glyph-name="Ntilde" unicode="&#xd1;" horiz-adv-x="358" 
d="M308 0h-58l-104 345q-25 80 -40 147q5 -115 5 -148v-344h-61v667h60l102 -355q38 -140 39 -146q-4 127 -4 144v357h61v-667zM108 728l-28 21q20 54 59 54q22 0 46 -18q22 -14 33 -14q18 0 29 23l29 -20q-17 -55 -60 -55q-22 0 -44 16q-20 17 -34 17q-18 0 -30 -24z" />
    <glyph glyph-name="Ograve" unicode="&#xd2;" horiz-adv-x="358" 
d="M36 332q0 55 2 95t6.5 82t14.5 70t25.5 51t38.5 34t54 11q81 0 112.5 -76t31.5 -258q0 -59 -2 -101.5t-7 -84.5t-15 -70t-25.5 -50t-38.5 -32.5t-54 -10.5q-53 0 -83.5 29.5t-45 103.5t-14.5 207zM109 336v-1q0 -164 14 -219q15 -60 57 -60q22 0 34 13.5t20 44.5
q14 62 14 223q0 114 -8 173.5t-22 78t-40 18.5q-31 0 -45 -27q-24 -51 -24 -244zM176 717l-115 55l32 53l108 -70z" />
    <glyph glyph-name="Oacute" unicode="&#xd3;" horiz-adv-x="358" 
d="M36 332q0 55 2 95t6.5 82t14.5 70t25.5 51t38.5 34t54 11q81 0 112.5 -76t31.5 -258q0 -59 -2 -101.5t-7 -84.5t-15 -70t-25.5 -50t-38.5 -32.5t-54 -10.5q-53 0 -83.5 29.5t-45 103.5t-14.5 207zM109 336v-1q0 -164 14 -219q15 -60 57 -60q22 0 34 13.5t20 44.5
q14 62 14 223q0 114 -8 173.5t-22 78t-40 18.5q-31 0 -45 -27q-24 -51 -24 -244zM161 717l-25 38l108 70l32 -53z" />
    <glyph glyph-name="Ocircumflex" unicode="&#xd4;" horiz-adv-x="358" 
d="M36 332q0 55 2 95t6.5 82t14.5 70t25.5 51t38.5 34t54 11q81 0 112.5 -76t31.5 -258q0 -59 -2 -101.5t-7 -84.5t-15 -70t-25.5 -50t-38.5 -32.5t-54 -10.5q-53 0 -83.5 29.5t-45 103.5t-14.5 207zM109 336v-1q0 -164 14 -219q15 -60 57 -60q22 0 34 13.5t20 44.5
q14 62 14 223q0 114 -8 173.5t-22 78t-40 18.5q-31 0 -45 -27q-24 -51 -24 -244zM248 712l-70 43l-70 -43l-30 31l100 75l101 -75z" />
    <glyph glyph-name="Otilde" unicode="&#xd5;" horiz-adv-x="358" 
d="M36 332q0 55 2 95t6.5 82t14.5 70t25.5 51t38.5 34t54 11q81 0 112.5 -76t31.5 -258q0 -59 -2 -101.5t-7 -84.5t-15 -70t-25.5 -50t-38.5 -32.5t-54 -10.5q-53 0 -83.5 29.5t-45 103.5t-14.5 207zM109 336v-1q0 -164 14 -219q15 -60 57 -60q22 0 34 13.5t20 44.5
q14 62 14 223q0 114 -8 173.5t-22 78t-40 18.5q-31 0 -45 -27q-24 -51 -24 -244zM98 728l-28 21q20 54 59 54q22 0 46 -18q22 -14 33 -14q18 0 29 23l29 -20q-17 -55 -60 -55q-22 0 -44 16q-20 17 -34 17q-18 0 -30 -24z" />
    <glyph glyph-name="Odieresis" unicode="&#xd6;" horiz-adv-x="358" 
d="M36 332q0 55 2 95t6.5 82t14.5 70t25.5 51t38.5 34t54 11q81 0 112.5 -76t31.5 -258q0 -59 -2 -101.5t-7 -84.5t-15 -70t-25.5 -50t-38.5 -32.5t-54 -10.5q-53 0 -83.5 29.5t-45 103.5t-14.5 207zM109 336v-1q0 -164 14 -219q15 -60 57 -60q22 0 34 13.5t20 44.5
q14 62 14 223q0 114 -8 173.5t-22 78t-40 18.5q-31 0 -45 -27q-24 -51 -24 -244zM69 761q0 16 12 29t30 13t30 -12.5t12 -29.5t-12 -30.5t-29 -13.5q-16 0 -29.5 12t-13.5 32zM193 761q0 16 12 29t30 13t30 -12.5t12 -29.5t-12 -30.5t-29 -13.5q-16 0 -29.5 12t-13.5 32z
" />
    <glyph glyph-name="multiply" unicode="&#xd7;" horiz-adv-x="324" 
d="M231 160l-69 120l-70 -120l-46 26l85 147l-85 147l46 27l70 -121l69 121l46 -27l-85 -147l85 -147z" />
    <glyph glyph-name="Oslash" unicode="&#xd8;" horiz-adv-x="358" 
d="M299 729l-27 -98q27 -36 36 -94q13 -86 13 -197q0 -188 -28 -268t-114 -80q-44 0 -68 18l-18 -67h-42l26 103q-21 42 -28 86q-13 87 -13 200q0 58 2 100t7.5 83.5t15.5 69t25.5 49t38.5 31.5t54 10q29 0 59 -14l18 68h43zM116 165l101 425q-15 17 -39 17
q-25 0 -38.5 -16.5t-22 -77.5t-8.5 -178q0 -91 7 -170zM239 525l-105 -441q18 -28 46 -28q22 0 34.5 13.5t19.5 44.5q14 58 14 223q0 118 -9 188z" />
    <glyph glyph-name="Ugrave" unicode="&#xd9;" horiz-adv-x="341" 
d="M45 667h70v-521q0 -18 0.5 -26.5t3 -22.5t8 -20.5t16.5 -12t27 -5.5q20 0 32 6.5t17 21t6 26t1 33.5v521h70v-516q0 -25 -1 -39.5t-7 -39.5t-18 -39.5t-36.5 -26t-59.5 -11.5q-37 0 -63 10.5t-38.5 24t-19 38.5t-7.5 40t-1 43v516zM181 717l-115 55l32 53l108 -70z" />
    <glyph glyph-name="Uacute" unicode="&#xda;" horiz-adv-x="341" 
d="M45 667h70v-521q0 -18 0.5 -26.5t3 -22.5t8 -20.5t16.5 -12t27 -5.5q20 0 32 6.5t17 21t6 26t1 33.5v521h70v-516q0 -25 -1 -39.5t-7 -39.5t-18 -39.5t-36.5 -26t-59.5 -11.5q-37 0 -63 10.5t-38.5 24t-19 38.5t-7.5 40t-1 43v516zM151 717l-25 38l108 70l32 -53z" />
    <glyph glyph-name="Ucircumflex" unicode="&#xdb;" horiz-adv-x="341" 
d="M45 667h70v-521q0 -18 0.5 -26.5t3 -22.5t8 -20.5t16.5 -12t27 -5.5q20 0 32 6.5t17 21t6 26t1 33.5v521h70v-516q0 -25 -1 -39.5t-7 -39.5t-18 -39.5t-36.5 -26t-59.5 -11.5q-37 0 -63 10.5t-38.5 24t-19 38.5t-7.5 40t-1 43v516zM223 712l-70 43l-70 -43l-30 31l100 75
l101 -75z" />
    <glyph glyph-name="Udieresis" unicode="&#xdc;" horiz-adv-x="341" 
d="M45 667h70v-521q0 -18 0.5 -26.5t3 -22.5t8 -20.5t16.5 -12t27 -5.5q20 0 32 6.5t17 21t6 26t1 33.5v521h70v-516q0 -25 -1 -39.5t-7 -39.5t-18 -39.5t-36.5 -26t-59.5 -11.5q-37 0 -63 10.5t-38.5 24t-19 38.5t-7.5 40t-1 43v516zM69 761q0 16 12 29t30 13t30 -12.5
t12 -29.5t-12 -30.5t-29 -13.5q-16 0 -29.5 12t-13.5 32zM193 761q0 16 12 29t30 13t30 -12.5t12 -29.5t-12 -30.5t-29 -13.5q-16 0 -29.5 12t-13.5 32z" />
    <glyph glyph-name="Yacute" unicode="&#xdd;" horiz-adv-x="273" 
d="M170 0h-70v283l-107 384h73l72 -301l74 301h68l-110 -384v-283zM136 717l-25 38l108 70l32 -53z" />
    <glyph glyph-name="Thorn" unicode="&#xde;" 
d="M120 0h-70v667h70v-114h21q21 0 34 -1.5t34 -11t35 -28.5q41 -55 41 -157q0 -93 -27.5 -146t-102.5 -53h-35v-156zM120 490v-271h25q39 0 54 33.5t15 103.5q0 134 -67 134h-27z" />
    <glyph glyph-name="germandbls" unicode="&#xdf;" horiz-adv-x="307" 
d="M36 -44v565q0 161 120 161q56 0 89 -40.5t33 -111.5q0 -62 -25.5 -93.5t-57.5 -39.5q1 -21 6 -31t26 -29q32 -28 48.5 -61.5t19 -55.5t2.5 -56q0 -31 -2 -51t-18 -53.5t-47 -52.5q-28 -18 -87 -18v58q52 0 68.5 31.5t16.5 91.5q0 50 -11.5 77.5t-35.5 51.5
q-22 24 -32 42.5t-10 46.5v45q33 1 54.5 24t20.5 71q0 95 -57 95q-20 0 -32.5 -8.5t-17 -25t-5.5 -28t-1 -30.5v-575h-65z" />
    <glyph glyph-name="agrave" unicode="&#xe0;" 
d="M250 324v-239q0 -72 9 -85h-60q-7 21 -7 46q-20 -53 -76 -53q-30 0 -50.5 17t-29 44.5t-11 47.5t-2.5 41q0 70 27.5 116.5t88.5 46.5q15 0 50 -7v17v39.5t-1.5 30.5t-4.5 26t-8 16.5t-13 11.5t-19 3q-51 0 -51 -80l-61 8q5 58 34.5 93.5t82.5 35.5q29 0 54 -13t34 -36
q10 -24 12 -47.5t2 -79.5zM189 162v80q-24 8 -45 8q-28 0 -43.5 -24t-15.5 -90q0 -83 44 -83q30 0 45 36t15 73zM145 546l-97 83l44 42l88 -96z" />
    <glyph glyph-name="aacute" unicode="&#xe1;" 
d="M250 324v-239q0 -72 9 -85h-60q-7 21 -7 46q-20 -53 -76 -53q-30 0 -50.5 17t-29 44.5t-11 47.5t-2.5 41q0 70 27.5 116.5t88.5 46.5q15 0 50 -7v17v39.5t-1.5 30.5t-4.5 26t-8 16.5t-13 11.5t-19 3q-51 0 -51 -80l-61 8q5 58 34.5 93.5t82.5 35.5q29 0 54 -13t34 -36
q10 -24 12 -47.5t2 -79.5zM189 162v80q-24 8 -45 8q-28 0 -43.5 -24t-15.5 -90q0 -83 44 -83q30 0 45 36t15 73zM157 546l-35 29l87 96l44 -42z" />
    <glyph glyph-name="acircumflex" unicode="&#xe2;" 
d="M250 324v-239q0 -72 9 -85h-60q-7 21 -7 46q-20 -53 -76 -53q-30 0 -50.5 17t-29 44.5t-11 47.5t-2.5 41q0 70 27.5 116.5t88.5 46.5q15 0 50 -7v17v39.5t-1.5 30.5t-4.5 26t-8 16.5t-13 11.5t-19 3q-51 0 -51 -80l-61 8q5 58 34.5 93.5t82.5 35.5q29 0 54 -13t34 -36
q10 -24 12 -47.5t2 -79.5zM189 162v80q-24 8 -45 8q-28 0 -43.5 -24t-15.5 -90q0 -83 44 -83q30 0 45 36t15 73zM215 550l-70 42l-70 -43l-30 31l100 75l101 -75z" />
    <glyph glyph-name="atilde" unicode="&#xe3;" 
d="M250 324v-239q0 -72 9 -85h-60q-7 21 -7 46q-20 -53 -76 -53q-30 0 -50.5 17t-29 44.5t-11 47.5t-2.5 41q0 70 27.5 116.5t88.5 46.5q15 0 50 -7v17v39.5t-1.5 30.5t-4.5 26t-8 16.5t-13 11.5t-19 3q-51 0 -51 -80l-61 8q5 58 34.5 93.5t82.5 35.5q29 0 54 -13t34 -36
q10 -24 12 -47.5t2 -79.5zM189 162v80q-24 8 -45 8q-28 0 -43.5 -24t-15.5 -90q0 -83 44 -83q30 0 45 36t15 73zM75 566l-28 21q21 54 59 54q22 0 46 -18q22 -14 33 -14q17 0 29 23l29 -20q-18 -56 -60 -56q-14 0 -23 4.5t-34 23.5q-10 6 -21 6q-18 0 -30 -24z" />
    <glyph glyph-name="adieresis" unicode="&#xe4;" 
d="M250 324v-239q0 -72 9 -85h-60q-7 21 -7 46q-20 -53 -76 -53q-30 0 -50.5 17t-29 44.5t-11 47.5t-2.5 41q0 70 27.5 116.5t88.5 46.5q15 0 50 -7v17v39.5t-1.5 30.5t-4.5 26t-8 16.5t-13 11.5t-19 3q-51 0 -51 -80l-61 8q5 58 34.5 93.5t82.5 35.5q29 0 54 -13t34 -36
q10 -24 12 -47.5t2 -79.5zM189 162v80q-24 8 -45 8q-28 0 -43.5 -24t-15.5 -90q0 -83 44 -83q30 0 45 36t15 73zM41 598q0 16 12 29t30 13q17 0 29.5 -12.5t12.5 -29.5t-12.5 -30.5t-29.5 -13.5q-15 0 -28.5 12t-13.5 32zM165 598q0 16 12.5 29t29.5 13t29.5 -12.5
t12.5 -29.5q0 -18 -12 -31t-30 -13q-15 0 -28.5 12t-13.5 32z" />
    <glyph glyph-name="aring" unicode="&#xe5;" 
d="M250 324v-239q0 -72 9 -85h-60q-7 21 -7 46q-20 -53 -76 -53q-30 0 -50.5 17t-29 44.5t-11 47.5t-2.5 41q0 70 27.5 116.5t88.5 46.5q15 0 50 -7v17v39.5t-1.5 30.5t-4.5 26t-8 16.5t-13 11.5t-19 3q-51 0 -51 -80l-61 8q5 58 34.5 93.5t82.5 35.5q29 0 54 -13t34 -36
q10 -24 12 -47.5t2 -79.5zM189 162v80q-24 8 -45 8q-28 0 -43.5 -24t-15.5 -90q0 -83 44 -83q30 0 45 36t15 73zM70 624q0 30 23 51.5t53 21.5q29 0 51.5 -21.5t22.5 -53.5q0 -29 -20.5 -52t-53.5 -23q-30 0 -53 21.5t-23 55.5zM111 622q0 -15 9.5 -24.5t23.5 -9.5t24.5 9.5
t10.5 23.5q0 15 -10.5 25.5t-24.5 10.5q-16 0 -24.5 -11.5t-8.5 -23.5z" />
    <glyph glyph-name="ae" unicode="&#xe6;" horiz-adv-x="426" 
d="M352 129l56 -9q-13 -128 -107 -128q-24 0 -41.5 6.5t-27 18.5t-13.5 19t-8 19q-9 -25 -32 -43t-57 -18q-35 0 -58 18t-31 47t-10 45t-2 33q0 75 33.5 117t87.5 42q17 0 43 -2v33v33.5t-1.5 27.5t-4 24.5t-7.5 16t-12.5 12t-18.5 3.5q-49 0 -49 -81l-63 7q6 56 33 93.5
t80 37.5q58 0 82 -48q26 48 80 48q23 0 41 -9.5t29.5 -23t19.5 -38.5t12 -44t6 -51.5t2.5 -50t0.5 -49.5h-167q0 -114 10 -150q11 -37 39 -37q46 0 55 81zM247 294h105q0 34 -1 52.5t-5 45.5t-15.5 40t-29.5 13q-30 0 -45 -41q-7 -22 -9 -110zM187 117v122q-14 2 -31 2
q-73 0 -73 -103q0 -26 6 -44t15.5 -26.5t17.5 -11.5t16 -3q24 0 36.5 21t12.5 43z" />
    <glyph glyph-name="ccedilla" unicode="&#xe7;" horiz-adv-x="256" 
d="M80 -152l11 35q19 -13 37 -13q29 0 29 32q0 18 -9 26.5t-20.5 7.5t-22.5 -1l15 58q-51 9 -72 65t-21 189q0 134 27.5 193.5t87.5 59.5q103 0 104 -154l-62 -6q-1 62 -10.5 82.5t-29.5 20.5q-32 0 -43 -59q-7 -44 -7 -138q0 -120 11 -161q11 -36 40 -36q22 0 31.5 22
t9.5 74l59 -4q-1 -48 -10 -80t-25.5 -46t-30 -18.5t-32.5 -5.5l-6 -20q28 -3 42 -15q23 -17 23 -55q0 -31 -21 -50t-52 -19q-32 0 -53 16z" />
    <glyph glyph-name="egrave" unicode="&#xe8;" horiz-adv-x="273" 
d="M197 128l57 -10q-15 -127 -111 -127q-60 0 -88 54t-28 200q0 128 26.5 191.5t92.5 63.5q25 0 44.5 -9t31.5 -27t20 -40t12 -54.5t5.5 -63t1.5 -72.5h-167q0 -104 8 -143q11 -45 43 -45q41 0 52 82zM94 290h105q-1 78 -11 116.5t-41 38.5q-17 0 -27.5 -10.5t-18 -46
t-7.5 -98.5zM136 546l-97 83l44 42l88 -96z" />
    <glyph glyph-name="eacute" unicode="&#xe9;" horiz-adv-x="273" 
d="M197 128l57 -10q-15 -127 -111 -127q-60 0 -88 54t-28 200q0 128 26.5 191.5t92.5 63.5q25 0 44.5 -9t31.5 -27t20 -40t12 -54.5t5.5 -63t1.5 -72.5h-167q0 -104 8 -143q11 -45 43 -45q41 0 52 82zM94 290h105q-1 78 -11 116.5t-41 38.5q-17 0 -27.5 -10.5t-18 -46
t-7.5 -98.5zM148 546l-35 29l87 96l44 -42z" />
    <glyph glyph-name="ecircumflex" unicode="&#xea;" horiz-adv-x="273" 
d="M197 128l57 -10q-15 -127 -111 -127q-60 0 -88 54t-28 200q0 128 26.5 191.5t92.5 63.5q25 0 44.5 -9t31.5 -27t20 -40t12 -54.5t5.5 -63t1.5 -72.5h-167q0 -104 8 -143q11 -45 43 -45q41 0 52 82zM94 290h105q-1 78 -11 116.5t-41 38.5q-17 0 -27.5 -10.5t-18 -46
t-7.5 -98.5zM206 550l-70 42l-70 -43l-30 31l100 75l101 -75z" />
    <glyph glyph-name="edieresis" unicode="&#xeb;" horiz-adv-x="273" 
d="M197 128l57 -10q-15 -127 -111 -127q-60 0 -88 54t-28 200q0 128 26.5 191.5t92.5 63.5q25 0 44.5 -9t31.5 -27t20 -40t12 -54.5t5.5 -63t1.5 -72.5h-167q0 -104 8 -143q11 -45 43 -45q41 0 52 82zM94 290h105q-1 78 -11 116.5t-41 38.5q-17 0 -27.5 -10.5t-18 -46
t-7.5 -98.5zM32 598q0 16 12 29t30 13q17 0 29.5 -12.5t12.5 -29.5t-12 -30.5t-30 -13.5q-15 0 -28.5 12t-13.5 32zM156 598q0 16 12 29t30 13q17 0 29.5 -12.5t12.5 -29.5q0 -18 -12 -31t-30 -13q-15 0 -28.5 12t-13.5 32z" />
    <glyph glyph-name="igrave" unicode="&#xec;" horiz-adv-x="136" 
d="M100 0h-64v493h64v-493zM68 546l-97 83l44 42l88 -96z" />
    <glyph glyph-name="iacute" unicode="&#xed;" horiz-adv-x="136" 
d="M100 0h-64v493h64v-493zM80 546l-35 29l87 96l44 -42z" />
    <glyph glyph-name="icircumflex" unicode="&#xee;" horiz-adv-x="136" 
d="M100 0h-64v493h64v-493zM138 550l-70 42l-70 -43l-30 31l100 75l101 -75z" />
    <glyph glyph-name="idieresis" unicode="&#xef;" horiz-adv-x="136" 
d="M100 0h-64v493h64v-493zM-36 598q0 16 12 29t30 13q17 0 29.5 -12.5t12.5 -29.5t-12 -30.5t-30 -13.5q-15 0 -28.5 12t-13.5 32zM88 598q0 16 12 29t30 13q17 0 29.5 -12.5t12.5 -29.5q0 -18 -12 -31t-30 -13q-15 0 -28.5 12t-13.5 32z" />
    <glyph glyph-name="eth" unicode="&#xf0;" 
d="M94 247q0 -127 11 -165q10 -34 40 -34t40 34q11 36 11 172q0 121 -11 157q-10 34 -39 34q-22 0 -33 -17q-19 -30 -19 -181zM274 639l-85 -51q74 -143 74 -347q0 -143 -27.5 -195.5t-89.5 -52.5q-41 0 -65 17.5t-39 73t-15 156.5q0 35 1 58.5t4 57.5t10.5 56.5t18.5 44
t30.5 32.5t44.5 11q21 0 40 -12q-12 41 -27 76l-77 -47l-24 41l80 48q-18 31 -29 47l36 22q15 -21 31 -46l83 50z" />
    <glyph glyph-name="ntilde" unicode="&#xf1;" 
d="M257 0h-64v386q0 55 -42 55t-52 -43v-398h-63v493h55v-50q21 57 81 57q24 0 41.5 -9t25.5 -20.5t12.5 -30t5 -28.5t0.5 -26v-386zM75 566l-28 21q21 54 59 54q22 0 46 -18q22 -14 33 -14q17 0 29 23l29 -20q-18 -56 -60 -56q-14 0 -23 4.5t-34 23.5q-10 6 -21 6
q-18 0 -30 -24z" />
    <glyph glyph-name="ograve" unicode="&#xf2;" 
d="M27 249q0 129 25.5 190t93.5 61q63 0 90 -57t27 -203q0 -76 -8 -126.5t-24 -76t-35.5 -35t-48.5 -9.5q-66 0 -93 53.5t-27 202.5zM94 247q0 -127 11 -165q10 -34 40 -34t40 34q11 36 11 172q0 121 -11 157q-10 34 -39 34q-22 0 -33 -17q-19 -30 -19 -181zM145 546l-97 83
l44 42l88 -96z" />
    <glyph glyph-name="oacute" unicode="&#xf3;" 
d="M27 249q0 129 25.5 190t93.5 61q63 0 90 -57t27 -203q0 -76 -8 -126.5t-24 -76t-35.5 -35t-48.5 -9.5q-66 0 -93 53.5t-27 202.5zM94 247q0 -127 11 -165q10 -34 40 -34t40 34q11 36 11 172q0 121 -11 157q-10 34 -39 34q-22 0 -33 -17q-19 -30 -19 -181zM157 546l-35 29
l87 96l44 -42z" />
    <glyph glyph-name="ocircumflex" unicode="&#xf4;" 
d="M27 249q0 129 25.5 190t93.5 61q63 0 90 -57t27 -203q0 -76 -8 -126.5t-24 -76t-35.5 -35t-48.5 -9.5q-66 0 -93 53.5t-27 202.5zM94 247q0 -127 11 -165q10 -34 40 -34t40 34q11 36 11 172q0 121 -11 157q-10 34 -39 34q-22 0 -33 -17q-19 -30 -19 -181zM215 550l-70 42
l-70 -43l-30 31l100 75l101 -75z" />
    <glyph glyph-name="otilde" unicode="&#xf5;" 
d="M27 249q0 129 25.5 190t93.5 61q63 0 90 -57t27 -203q0 -76 -8 -126.5t-24 -76t-35.5 -35t-48.5 -9.5q-66 0 -93 53.5t-27 202.5zM94 247q0 -127 11 -165q10 -34 40 -34t40 34q11 36 11 172q0 121 -11 157q-10 34 -39 34q-22 0 -33 -17q-19 -30 -19 -181zM75 566l-28 21
q21 54 59 54q22 0 46 -18q22 -14 33 -14q17 0 29 23l29 -20q-18 -56 -60 -56q-14 0 -23 4.5t-34 23.5q-10 6 -21 6q-18 0 -30 -24z" />
    <glyph glyph-name="odieresis" unicode="&#xf6;" 
d="M27 249q0 129 25.5 190t93.5 61q63 0 90 -57t27 -203q0 -76 -8 -126.5t-24 -76t-35.5 -35t-48.5 -9.5q-66 0 -93 53.5t-27 202.5zM94 247q0 -127 11 -165q10 -34 40 -34t40 34q11 36 11 172q0 121 -11 157q-10 34 -39 34q-22 0 -33 -17q-19 -30 -19 -181zM41 598
q0 16 12 29t30 13q17 0 29.5 -12.5t12.5 -29.5t-12.5 -30.5t-29.5 -13.5q-15 0 -28.5 12t-13.5 32zM165 598q0 16 12.5 29t29.5 13t29.5 -12.5t12.5 -29.5q0 -18 -12 -31t-30 -13q-15 0 -28.5 12t-13.5 32z" />
    <glyph glyph-name="divide" unicode="&#xf7;" horiz-adv-x="324" 
d="M299 308h-275v51h275v-51zM192 418h-61v93h61v-93zM192 156h-61v93h61v-93z" />
    <glyph glyph-name="oslash" unicode="&#xf8;" 
d="M248 556l-25 -91q39 -57 39 -225q0 -76 -7.5 -126t-24 -76t-35.5 -35.5t-48 -9.5q-26 0 -48 8l-18 -66h-38l25 90q-21 28 -29 69q-12 61 -12 146q0 64 4.5 107t16.5 80t36 55t62 18q25 0 45 -9l19 65h38zM98 113l78 318q-14 14 -30 14q-29 0 -41 -33q-11 -37 -11 -181
q0 -61 4 -118zM192 370l-76 -311q16 -11 29 -11q29 0 40 34q11 38 11 212q0 34 -4 76z" />
    <glyph glyph-name="ugrave" unicode="&#xf9;" 
d="M254 0h-57v49q-22 -56 -82 -56q-28 0 -46 10.5t-25 32t-9 38t-2 43.5v376h64v-375q0 -16 1 -24.5t4.5 -20.5t12.5 -17.5t24 -5.5q20 0 34.5 12t16.5 30v401h64v-493zM145 546l-97 83l44 42l88 -96z" />
    <glyph glyph-name="uacute" unicode="&#xfa;" 
d="M254 0h-57v49q-22 -56 -82 -56q-28 0 -46 10.5t-25 32t-9 38t-2 43.5v376h64v-375q0 -16 1 -24.5t4.5 -20.5t12.5 -17.5t24 -5.5q20 0 34.5 12t16.5 30v401h64v-493zM157 546l-35 29l87 96l44 -42z" />
    <glyph glyph-name="ucircumflex" unicode="&#xfb;" 
d="M254 0h-57v49q-22 -56 -82 -56q-28 0 -46 10.5t-25 32t-9 38t-2 43.5v376h64v-375q0 -16 1 -24.5t4.5 -20.5t12.5 -17.5t24 -5.5q20 0 34.5 12t16.5 30v401h64v-493zM215 550l-70 42l-70 -43l-30 31l100 75l101 -75z" />
    <glyph glyph-name="udieresis" unicode="&#xfc;" 
d="M254 0h-57v49q-22 -56 -82 -56q-28 0 -46 10.5t-25 32t-9 38t-2 43.5v376h64v-375q0 -16 1 -24.5t4.5 -20.5t12.5 -17.5t24 -5.5q20 0 34.5 12t16.5 30v401h64v-493zM41 598q0 16 12 29t30 13q17 0 29.5 -12.5t12.5 -29.5t-12.5 -30.5t-29.5 -13.5q-15 0 -28.5 12
t-13.5 32zM165 598q0 16 12.5 29t29.5 13t29.5 -12.5t12.5 -29.5q0 -18 -12 -31t-30 -13q-15 0 -28.5 12t-13.5 32z" />
    <glyph glyph-name="yacute" unicode="&#xfd;" horiz-adv-x="256" 
d="M23 -172v57q15 -3 28 -3q21 0 28 15t15 66l9 63l-97 467h66l35 -199q20 -109 25 -152q5 51 22 148l35 203h60l-97 -533q-6 -31 -9.5 -46t-10.5 -36t-16 -30.5t-24 -17t-35 -7.5q-19 0 -34 5zM140 546l-35 29l87 96l44 -42z" />
    <glyph glyph-name="thorn" unicode="&#xfe;" 
d="M100 -176h-64v843h64v-216q6 13 10.5 20.5t18.5 16.5t33 9q101 0 101 -249q0 -78 -8 -131.5t-31.5 -88.5t-62.5 -35q-45 0 -61 40v-209zM100 385v-296q2 -15 15.5 -28t31.5 -13q29 0 39 40q10 34 10 150q0 117 -12.5 158.5t-40.5 41.5q-36 0 -43 -53z" />
    <glyph glyph-name="ydieresis" unicode="&#xff;" horiz-adv-x="256" 
d="M23 -172v57q15 -3 28 -3q21 0 28 15t15 66l9 63l-97 467h66l35 -199q20 -109 25 -152q5 51 22 148l35 203h60l-97 -533q-6 -31 -9.5 -46t-10.5 -36t-16 -30.5t-24 -17t-35 -7.5q-19 0 -34 5zM24 598q0 16 12 29t30 13q17 0 29.5 -12.5t12.5 -29.5t-12 -30.5t-30 -13.5
q-15 0 -28.5 12t-13.5 32zM148 598q0 16 12 29t30 13q17 0 29.5 -12.5t12.5 -29.5q0 -18 -12 -31t-30 -13q-15 0 -28.5 12t-13.5 32z" />
    <glyph glyph-name="dotlessi" unicode="&#x131;" horiz-adv-x="136" 
d="M100 0h-64v493h64v-493z" />
    <glyph glyph-name="Lslash" unicode="&#x141;" horiz-adv-x="255" 
d="M256 0h-206v255l-42 -43v68l42 42v345h70v-296l72 73v-68l-72 -72v-241h136v-63z" />
    <glyph glyph-name="lslash" unicode="&#x142;" horiz-adv-x="170" 
d="M117 0h-64v278l-46 -46v59l46 46v330h64v-282l46 47v-59l-46 -46v-327z" />
    <glyph glyph-name="OE" unicode="&#x152;" horiz-adv-x="494" 
d="M479 0h-226v55q-26 -63 -86 -63q-69 0 -100 77t-31 264q0 83 6 142.5t20.5 106.5t41 70t65.5 23q57 0 84 -61v53h217v-63h-152v-222h117v-65h-117v-254h161v-63zM249 135v399q-17 78 -68 78q-38 0 -55 -55q-15 -51 -15 -212q0 -123 7 -192q9 -98 64 -98q53 0 67 80z" />
    <glyph glyph-name="oe" unicode="&#x153;" horiz-adv-x="443" 
d="M368 129l55 -10q-16 -127 -107 -127q-70 0 -86 62q-18 -62 -86 -62q-65 0 -91 59t-26 192q0 58 4 98.5t15.5 80t36 59.5t61.5 20q69 0 89 -73q21 73 87 73q26 0 46 -12t31.5 -35.5t19 -46.5t10.5 -59t3.5 -57t0.5 -55h-168q0 -99 7 -138q10 -50 46 -50q27 0 37.5 22.5
t14.5 58.5zM95 251q0 -111 8 -154q11 -49 43 -49t43 47q8 35 8 162q0 113 -12 151q-11 36 -39 36q-24 0 -33 -19q-18 -33 -18 -174zM262 294h105q0 30 -1 49t-5.5 46t-16 41t-29.5 14t-30 -14.5t-16.5 -41.5t-5.5 -46t-1 -48z" />
    <glyph glyph-name="Scaron" unicode="&#x160;" 
d="M1 153l66 10q1 -45 18.5 -76.5t51.5 -31.5q70 0 70 120q0 42 -14.5 74t-26.5 43.5t-31 24.5q-28 20 -42.5 32.5t-36.5 37.5t-32 57t-10 72q0 72 34 115t94 43q28 0 50 -10t35.5 -24.5t22.5 -35.5t13 -38.5t6 -36.5l-66 -11q-3 19 -5.5 30.5t-9 28t-19 25t-30.5 8.5
q-55 0 -55 -78q0 -80 62 -125q51 -37 70 -55t35 -47q29 -53 29 -118q0 -83 -35 -140q-35 -56 -110 -56q-67 0 -99 45.5t-35 116.5zM139 712l-101 74l31 31l70 -43l70 44l30 -32z" />
    <glyph glyph-name="scaron" unicode="&#x161;" horiz-adv-x="239" 
d="M8 113l59 11q4 -74 49 -74q47 0 47 77q0 36 -13 57t-49 49q-29 22 -44 36.5t-29 43.5t-14 66q0 59 30.5 90t73.5 31q36 0 66.5 -24t37.5 -88l-56 -11q-3 62 -48 62q-41 0 -41 -49q0 -22 8.5 -39.5t17.5 -26.5t29 -25q54 -42 76.5 -74.5t22.5 -87.5q0 -90 -50 -126
q-24 -18 -66 -18q-101 0 -107 120zM120 549l-101 75l31 31l70 -43l70 43l30 -31z" />
    <glyph glyph-name="Ydieresis" unicode="&#x178;" horiz-adv-x="273" 
d="M170 0h-70v283l-107 384h73l72 -301l74 301h68l-110 -384v-283zM34 761q0 16 12 29t30 13t30 -12.5t12 -29.5t-12 -30.5t-29 -13.5q-16 0 -29.5 12t-13.5 32zM158 761q0 16 12 29t30 13t30 -12.5t12 -29.5t-12 -30.5t-29 -13.5q-16 0 -29.5 12t-13.5 32z" />
    <glyph glyph-name="Zcaron" unicode="&#x17d;" horiz-adv-x="255" 
d="M245 667v-56l-172 -548h177v-63h-245v70l167 534h-159v63h232zM114 712l-101 74l31 31l70 -43l70 44l30 -32z" />
    <glyph glyph-name="zcaron" unicode="&#x17e;" horiz-adv-x="204" 
d="M197 0h-189v60l120 374h-110v59h179v-47l-126 -389h126v-57zM103 549l-101 75l31 31l70 -43l70 43l30 -31z" />
    <glyph glyph-name="florin" unicode="&#x192;" horiz-adv-x="324" 
d="M-9 -141l7 60q53 -5 65.5 14t21.5 102l37 353h-49l7 58h49l8 72q3 27 5.5 42.5t11 40.5t20 38.5t32.5 24.5t50 11q15 0 27 -2l-8 -60q-37 3 -50.5 -16.5t-23.5 -88.5l-8 -62h65l-7 -58h-66l-36 -343q-4 -41 -7 -63t-11 -50.5t-19.5 -42t-32 -23.5t-48.5 -10q-13 0 -40 3z
" />
    <glyph glyph-name="circumflex" unicode="&#x2c6;" horiz-adv-x="307" 
d="M223 550l-70 42l-70 -43l-30 31l100 75l101 -75z" />
    <glyph glyph-name="caron" unicode="&#x2c7;" horiz-adv-x="307" 
d="M154 549l-101 75l31 31l70 -43l70 43l30 -31z" />
    <glyph glyph-name="uni02C9" unicode="&#x2c9;" horiz-adv-x="307" 
d="M234 572h-162v52h162v-52z" />
    <glyph glyph-name="breve" unicode="&#x2d8;" horiz-adv-x="307" 
d="M203 649h35q0 -31 -19.5 -62t-65.5 -31q-44 0 -63.5 29.5t-20.5 63.5h35q8 -42 49 -42q42 0 50 42z" />
    <glyph glyph-name="dotaccent" unicode="&#x2d9;" horiz-adv-x="307" 
d="M111 600q0 16 12 29t30 13q17 0 29.5 -12.5t12.5 -30.5t-12 -30.5t-29 -12.5t-30 12.5t-13 31.5z" />
    <glyph glyph-name="ring" unicode="&#x2da;" horiz-adv-x="307" 
d="M78 624q0 30 23 51.5t53 21.5q29 0 51.5 -21.5t22.5 -53.5q0 -29 -20.5 -52t-53.5 -23q-30 0 -53 21.5t-23 55.5zM119 622q0 -15 9.5 -24.5t23.5 -9.5t24.5 9.5t10.5 23.5q0 15 -10.5 25.5t-24.5 10.5q-16 0 -24.5 -11.5t-8.5 -23.5z" />
    <glyph glyph-name="ogonek" unicode="&#x2db;" horiz-adv-x="307" 
d="M333 -102l8 -31q-25 -23 -62 -23q-36 0 -60 21.5t-24 57.5q0 42 39 77h38q-25 -27 -25 -68q0 -48 44 -48q20 0 42 14z" />
    <glyph glyph-name="tilde" unicode="&#x2dc;" horiz-adv-x="307" 
d="M83 566l-28 21q21 54 59 54q22 0 46 -18q22 -14 33 -14q17 0 29 23l29 -20q-18 -56 -60 -56q-14 0 -23 4.5t-34 23.5q-10 6 -21 6q-18 0 -30 -24z" />
    <glyph glyph-name="hungarumlaut" unicode="&#x2dd;" horiz-adv-x="307" 
d="M127 546l-30 25l61 91l45 -40zM217 546l-29 25l61 91l44 -41z" />
    <glyph glyph-name="uni03A9" unicode="&#x3a9;" horiz-adv-x="405" 
d="M110 60v3q-76 126 -76 300q0 141 47.5 223t124.5 82q76 0 119 -84.5t43 -214.5q0 -92 -22 -173.5t-54 -132.5v-3h84v-60h-144v43q31 43 51.5 126t20.5 181q0 102 -25 179t-76 77q-49 0 -77 -71t-28 -185q0 -92 21.5 -179.5t50.5 -127.5v-43h-144v60h84z" />
    <glyph glyph-name="uni03BC" unicode="&#x3bc;" 
d="M254 0h-57v49q-12 -56 -54 -56q-32 0 -46 32v-201h-64v669h64v-386q0 -57 46 -57q18 0 31.5 12t15.5 30v401h64v-493z" />
    <glyph glyph-name="pi" unicode="&#x3c0;" horiz-adv-x="356" 
d="M335 429h-43v-307q0 -81 9 -122h-60q-11 29 -11 120v309h-92q-2 -101 -14 -229.5t-29 -199.5h-60q18 77 29 202.5t12 226.5q-34 0 -57 -7l-9 46q26 24 93 24h237z" />
    <glyph glyph-name="endash" unicode="&#x2013;" 
d="M257 220h-224v58h224v-58z" />
    <glyph glyph-name="emdash" unicode="&#x2014;" horiz-adv-x="443" 
d="M406 220h-369v58h369v-58z" />
    <glyph glyph-name="quoteleft" unicode="&#x2018;" horiz-adv-x="170" 
d="M89 667h34l-31 -116h31v-101h-76v95z" />
    <glyph glyph-name="quoteright" unicode="&#x2019;" horiz-adv-x="170" 
d="M81 451h-34l31 115h-31v101h76v-95z" />
    <glyph glyph-name="quotesinglbase" unicode="&#x201a;" horiz-adv-x="171" 
d="M81 -115h-34l31 115h-31v101h76v-95z" />
    <glyph glyph-name="quotedblleft" unicode="&#x201c;" 
d="M209 667h34l-31 -116h31v-101h-76v95zM88 667h35l-31 -116h31v-100h-76v95z" />
    <glyph glyph-name="quotedblright" unicode="&#x201d;" 
d="M81 451h-34l31 115h-31v101h76v-95zM201 451h-35l31 115h-31v101h76v-95z" />
    <glyph glyph-name="quotedblbase" unicode="&#x201e;" 
d="M81 -115l-34 -1l31 116h-31v101h76v-95zM201 -116l-35 1l31 115h-31v101h76v-95z" />
    <glyph glyph-name="dagger" unicode="&#x2020;" horiz-adv-x="324" 
d="M192 -104h-61v509h-85v57h85v205h61v-205h85v-57h-85v-509z" />
    <glyph glyph-name="daggerdbl" unicode="&#x2021;" horiz-adv-x="324" 
d="M192 -103h-61v204h-85v57h85v247h-85v57h85v205h61v-205h85v-57h-85v-247h85v-57h-85v-204z" />
    <glyph glyph-name="bullet" unicode="&#x2022;" horiz-adv-x="86" 
d="M86 286h-86v114h86v-114z" />
    <glyph glyph-name="ellipsis" unicode="&#x2026;" horiz-adv-x="512" 
d="M125 0h-79v108h79v-108zM296 0h-79v108h79v-108zM467 0h-79v108h79v-108z" />
    <glyph glyph-name="perthousand" unicode="&#x2030;" horiz-adv-x="767" 
d="M24 470q0 35 0.5 54.5t3.5 47.5t9 43t16.5 30.5t27 22t39.5 6.5q22 0 38 -6.5t26 -21t16.5 -31t9.5 -43.5t4 -50.5t1 -59.5q0 -104 -18.5 -152t-76.5 -48q-22 0 -38.5 6.5t-27 21t-16.5 30.5t-9 43t-4 49.5t-1 57.5zM80 466q0 -102 10 -135q8 -25 28 -25q22 0 29 23
q11 32 11 131q0 83 -5 122q-7 48 -35 48q-15 0 -22 -11q-16 -25 -16 -153zM314 203q0 35 0.5 54.5t3.5 47.5t9 43t16 30.5t26.5 22t39.5 6.5q32 0 52 -14.5t29 -46.5t11.5 -63.5t2.5 -85.5q0 -105 -18 -153t-76 -48q-22 0 -38.5 6.5t-27 21t-16.5 30.5t-9 43t-4 49t-1 57z
M370 199q0 -97 10 -134q7 -25 27 -25q22 0 30 23q10 31 10 132q0 80 -5 120q-6 48 -34 48q-19 0 -28 -22q-10 -28 -10 -142zM552 203q0 35 0.5 54.5t3.5 47.5t9 43t16.5 30.5t27 22t39.5 6.5q32 0 52 -14.5t29 -46.5t11.5 -64t2.5 -86q0 -104 -18.5 -152t-76.5 -48
q-22 0 -38.5 6.5t-27 21t-16.5 30.5t-9 43t-4 49t-1 57zM608 199q0 -101 10 -134q7 -25 28 -25q22 0 30 23q10 32 10 130q0 72 -5 122q-6 48 -35 48q-19 0 -28 -22q-10 -28 -10 -142zM185 0h-41l198 666h43z" />
    <glyph glyph-name="guilsinglleft" unicode="&#x2039;" horiz-adv-x="153" 
d="M124 117h-48l-68 143l68 138h48l-51 -138z" />
    <glyph glyph-name="guilsinglright" unicode="&#x203a;" horiz-adv-x="153" 
d="M78 117h-49l52 138l-52 143h49l67 -143z" />
    <glyph glyph-name="fraction" unicode="&#x2044;" horiz-adv-x="68" 
d="M-45 0h-41l198 666h42z" />
    <glyph glyph-name="Euro" unicode="&#x20ac;" horiz-adv-x="324" 
d="M17 371l8 47h50q2 62 8 105.5t19.5 79.5t39 54t63.5 18q113 0 118 -156l-69 -12q-6 58 -15 81t-34 23q-36 0 -47.5 -50.5t-11.5 -142.5h106l-8 -47h-98v-66h90l-8 -47h-82q0 -113 13 -157.5t46 -44.5q23 0 35 20t16 76l64 -11q-14 -149 -115 -149q-72 0 -100 56.5
t-30 209.5h-58l8 47h49v66h-57z" />
    <glyph glyph-name="afii61289" unicode="&#x2113;" horiz-adv-x="310" 
d="M269 118l28 -26q-40 -96 -115 -96q-112 0 -110 183v15q-6 -7 -17.5 -19.5t-16.5 -18.5l-19 38q33 35 53 64v254q0 113 29.5 164.5t75.5 51.5q37 0 57 -38t20 -106q0 -158 -120 -330l-1 -47q0 -85 15 -121t46 -36q39 0 75 68zM134 506v-178q82 138 82 260q0 85 -38 85
q-44 0 -44 -167z" />
    <glyph glyph-name="trademark" unicode="&#x2122;" horiz-adv-x="392" 
d="M90 287h-47v338h-48v42h144v-42h-49v-338zM369 287h-41v210q0 22 2 76q-6 -57 -10 -76l-37 -210h-41l-36 203q-6 37 -10 83q0 -7 1 -43t1 -42v-201h-39v380h54l35 -198q6 -28 17 -121q0 6 6 54t9 66l35 199h54v-380z" />
    <glyph glyph-name="Omega" unicode="&#x2126;" horiz-adv-x="405" 
d="M110 60v3q-76 126 -76 300q0 141 47.5 223t124.5 82q76 0 119 -84.5t43 -214.5q0 -92 -22 -173.5t-54 -132.5v-3h84v-60h-144v43q31 43 51.5 126t20.5 181q0 102 -25 179t-76 77q-49 0 -77 -71t-28 -185q0 -92 21.5 -179.5t50.5 -127.5v-43h-144v60h84z" />
    <glyph glyph-name="estimated" unicode="&#x212e;" horiz-adv-x="823" 
d="M791 324h-615q-5 0 -5 -4v-186q0 -11 8 -21q98 -101 233 -101q147 0 244 113h55q-52 -61 -131 -96.5t-169 -35.5q-157 0 -268 99.5t-111 240.5q0 142 111 242t268 100t268.5 -100t111.5 -242v-9zM651 348v187q0 13 -9 22q-99 97 -230 97q-134 0 -232 -100q-9 -9 -9 -23
v-183q0 -6 5 -6h471q4 0 4 6z" />
    <glyph glyph-name="partialdiff" unicode="&#x2202;" horiz-adv-x="348" 
d="M67 643l-19 56q47 47 104 47q68 0 116 -84.5t48 -265.5q0 -198 -44 -298t-123 -100q-56 0 -87.5 57t-31.5 153q0 111 42 180.5t97 69.5q57 0 84 -56h1v28q0 109 -30.5 182t-78.5 73q-40 0 -78 -42zM155 59h1q38 0 63 76t30 188q-19 75 -71 75q-36 0 -60.5 -56.5
t-24.5 -135.5q0 -71 16.5 -109t45.5 -38z" />
    <glyph glyph-name="Delta" unicode="&#x2206;" horiz-adv-x="388" 
d="M22 0v44l140 629h69l136 -628v-45h-345zM84 57h219l-74 346q-4 24 -17 81t-17 82h-2q-3 -25 -15.5 -79t-16.5 -77z" />
    <glyph glyph-name="product" unicode="&#x220f;" horiz-adv-x="433" 
d="M412 594h-57v-685h-63v685h-151v-685h-64v685h-57v66h392v-66z" />
    <glyph glyph-name="summation" unicode="&#x2211;" horiz-adv-x="344" 
d="M329 -91h-311v50l162 325l-155 325v51h290v-59h-210v-3l144 -300l-160 -318v-3h240v-68z" />
    <glyph glyph-name="minus" unicode="&#x2212;" horiz-adv-x="324" 
d="M300 308h-276v51h276v-51z" />
    <glyph glyph-name="uni2215" unicode="&#x2215;" horiz-adv-x="68" 
d="M-45 0h-41l198 666h42z" />
    <glyph glyph-name="uni2219" unicode="&#x2219;" horiz-adv-x="171" 
d="M125 278h-79v108h79v-108z" />
    <glyph glyph-name="radical" unicode="&#x221a;" horiz-adv-x="383" 
d="M373 789l-138 -928h-53l-100 437l-48 -18l-10 43l101 38l69 -309q13 -82 13 -85l1 -1q1 5 2 21t3 31.5t4 29.5l112 741h44z" />
    <glyph glyph-name="infinity" unicode="&#x221e;" horiz-adv-x="560" 
d="M525 276v-1q0 -54 -33.5 -87.5t-79.5 -33.5q-65 0 -131 84q-35 -41 -65.5 -62.5t-70.5 -21.5q-46 0 -78.5 34t-32.5 84q0 52 32.5 86t82.5 34q66 0 134 -84q25 28 37.5 40.5t39.5 28t57 15.5q47 -1 77.5 -33t30.5 -83zM150 195h1q7 0 14 1t14 4.5t12.5 6t13 8.5t11 9
t11.5 11.5t10 11t10.5 12t10.5 11.5q-24 30 -34 41.5t-32.5 25.5t-45.5 14q-33 0 -51.5 -23t-17.5 -57q0 -32 21 -54t52 -22zM412 351h-1q-13 0 -25.5 -4.5t-25.5 -15.5t-20 -17.5t-20.5 -22t-15.5 -17.5q39 -45 60.5 -62t49.5 -17q31 0 49.5 23.5t18.5 53.5q0 36 -19 57.5
t-51 21.5z" />
    <glyph glyph-name="integral" unicode="&#x222b;" horiz-adv-x="269" 
d="M246 798l-10 -50q-12 6 -21 6q-21 0 -33 -25q-20 -33 -20 -166q0 -74 3.5 -235t3.5 -240q0 -138 -29 -193q-24 -47 -78 -47q-24 0 -42 11l11 53q21 -7 25 -7q20 0 32 24q17 36 17 158q0 79 -3.5 243t-3.5 239q0 147 37 200q28 38 74 38q19 0 37 -9z" />
    <glyph glyph-name="approxequal" unicode="&#x2248;" horiz-adv-x="358" 
d="M304 382l27 -20q-28 -79 -87 -79q-28 0 -72 29q-39 27 -59 27q-34 0 -59 -56l-29 19q30 78 92 78q10 0 19 -2t18 -6t14 -6.5t13 -8t10 -6.5q39 -26 56 -26q18 0 30.5 14t26.5 43zM304 256l27 -20q-12 -35 -34.5 -56.5t-52.5 -21.5q-28 0 -72 29q-41 27 -59 27
q-34 0 -59 -57l-29 19q14 36 38 57.5t54 21.5q12 0 24.5 -3.5t19 -7t17.5 -10.5t13 -8q40 -27 57 -27t29.5 14t26.5 43z" />
    <glyph glyph-name="notequal" unicode="&#x2260;" horiz-adv-x="358" 
d="M259 426l-27 -65h91v-44h-106l-41 -100h147v-44h-161l-32 -76l-33 13l26 63h-89v44h105l40 100h-145v44h160l31 77z" />
    <glyph glyph-name="lessequal" unicode="&#x2264;" horiz-adv-x="358" 
d="M321 116l-284 174v45l284 174v-55l-241 -140v-2l241 -141v-55zM324 38h-289v46h289v-46z" />
    <glyph glyph-name="greaterequal" unicode="&#x2265;" horiz-adv-x="358" 
d="M38 509l284 -174v-45l-284 -174v55l241 140v2l-241 141v55zM324 38h-289v46h289v-46z" />
    <glyph glyph-name="lozenge" unicode="&#x25ca;" horiz-adv-x="383" 
d="M346 330l-129 -357h-55l-125 357l129 357h55zM287 328l-81 236q-4 12 -13 57h-2q-9 -45 -13 -57l-82 -233l82 -238q4 -14 11 -56h3q5 33 12 54z" />
    </font>
</defs>
</svg>
