<?xml version="1.0" encoding="UTF-8"?>
<svg width="50px" height="50px" viewBox="0 0 50 50" version="1.1" xmlns="http://www.w3.org/2000/svg" xmlns:xlink="http://www.w3.org/1999/xlink">
    <!-- Generator: sketchtool 55.2 (78181) - https://sketchapp.com -->
    <title>AF9A14D4-3D5D-4273-9FA7-11DE8DFE25C1@1.00x</title>
    <desc>Created with sketchtool.</desc>
    <g id="Journey-Planner" stroke="none" stroke-width="1" fill="none" fill-rule="evenodd">
        <g id="2.2.2---CaltexB2B---Journey-Planner---3-Routes" transform="translate(-696.000000, -608.000000)" fill="#E62F46">
            <g id="drawer" transform="translate(97.000000, 608.000000)">
                <g id="Drawer">
                    <g id="btns/carousel-arrow" transform="translate(624.000000, 25.000000) rotate(270.000000) translate(-624.000000, -25.000000) translate(599.000000, 0.000000)">
                        <rect id="Rectangle" transform="translate(25.000000, 25.000000) rotate(-180.000000) translate(-25.000000, -25.000000) " x="0" y="0" width="50" height="50"></rect>
                        <path d="M28.7383393,25 L20.161559,15.9462529 C19.6716633,15.4291108 20.4065066,14.6534059 20.8964028,15.1705425 L29.8406044,24.6121448 C29.9724603,24.751333 30.0155934,24.909254 29.9951825,25.0895173 C29.9782431,25.1912946 29.9296598,25.2938453 29.8406044,25.3878552 L20.8964028,34.8294575 C20.4065066,35.3465941 19.6716633,34.5708892 20.161559,34.0537471 L28.7383393,25 Z" id="Path" fill="#FFFFFF" transform="translate(25.000000, 25.000000) rotate(-180.000000) translate(-25.000000, -25.000000) "></path>
                    </g>
                </g>
            </g>
        </g>
    </g>
</svg>