<?xml version="1.0" encoding="UTF-8"?>
<svg width="18px" height="18px" viewBox="0 0 18 18" version="1.1" xmlns="http://www.w3.org/2000/svg" xmlns:xlink="http://www.w3.org/1999/xlink">
    <!-- Generator: sketchtool 55.2 (78181) - https://sketchapp.com -->
    <title>75A8EEA7-BC9A-4201-A318-68FB354727E6@1.00x</title>
    <desc>Created with sketchtool.</desc>
    <g id="Journey-Planner" stroke="none" stroke-width="1" fill="none" fill-rule="evenodd">
        <g id="2.2.2---CaltexB2B---Journey-Planner---3-Routes" transform="translate(-599.000000, -970.000000)" fill="#E62F46">
            <g id="drawer" transform="translate(97.000000, 608.000000)">
                <g id="Mileage" transform="translate(405.000000, 80.000000)">
                    <g id="CTAs" transform="translate(0.000000, 276.000000)">
                        <g id="Group-2" transform="translate(97.000000, 4.000000)">
                            <g id="icons/download" transform="translate(0.000000, 2.000000)">
                                <path d="M17.5813953,17.9667209 L0.418604651,17.9667209 C0.187534884,17.9667209 0,17.779186 0,17.5481163 L0,12.6500233 C0,12.4189535 0.187534884,12.2314186 0.418604651,12.2314186 C0.649674419,12.2314186 0.837209302,12.4189535 0.837209302,12.6500233 L0.837209302,17.1295116 L17.1627907,17.1295116 L17.1627907,12.7230698 C17.1627907,12.492 17.3503256,12.3044651 17.5813953,12.3044651 C17.8124651,12.3044651 18,12.492 18,12.7230698 L18,17.5483256 C18,17.7793953 17.8124651,17.9667209 17.5813953,17.9667209 Z M8.96316279,14.0381462 C8.84637209,14.0381462 8.73523256,13.989588 8.65590698,13.9037741 L4.25113953,9.14319269 C4.09416279,8.9734485 4.1044186,8.70868106 4.27416279,8.55149502 C4.44411628,8.39451827 4.70846512,8.40477409 4.86586047,8.57451827 L8.5405814,12.5464485 L8.5405814,0.418604651 C8.5405814,0.187534884 8.72811628,-3.15544362e-30 8.95918605,-3.15544362e-30 C9.19025581,-3.15544362e-30 9.3777907,0.187534884 9.3777907,0.418604651 L9.3777907,12.5554485 L13.0623488,8.57451827 C13.2193256,8.40477409 13.4843023,8.39451827 13.6538372,8.55170432 C13.8235814,8.70868106 13.8338372,8.97365781 13.6766512,9.14319269 L9.2704186,13.9037741 C9.19109302,13.989588 9.07974419,14.0381462 8.96316279,14.0381462 Z" id="Shape"></path>
                            </g>
                        </g>
                    </g>
                </g>
            </g>
        </g>
    </g>
</svg>