<?xml version="1.0" encoding="UTF-8"?>
<svg width="17px" height="18px" viewBox="0 0 17 18" version="1.1" xmlns="http://www.w3.org/2000/svg" xmlns:xlink="http://www.w3.org/1999/xlink">
    <!-- Generator: sketchtool 55.2 (78181) - https://sketchapp.com -->
    <title>1E9502E1-8099-4D83-8E02-2CD0B0E9213D@1.00x</title>
    <desc>Created with sketchtool.</desc>
    <g id="Journey-Planner" stroke="none" stroke-width="1" fill="none" fill-rule="evenodd">
        <g id="2.2.2---CaltexB2B---Journey-Planner---3-Routes" transform="translate(-845.000000, -970.000000)" fill="#E62F46">
            <g id="drawer" transform="translate(97.000000, 608.000000)">
                <g id="Mileage" transform="translate(405.000000, 80.000000)">
                    <g id="CTAs" transform="translate(0.000000, 276.000000)">
                        <g id="Group-3" transform="translate(343.000000, 4.000000)">
                            <g id="icons/share" transform="translate(0.000000, 2.000000)">
                                <path d="M13.9383117,11.8636364 C12.9564935,11.8636364 12.0769481,12.3340909 11.5246753,13.05 L6.55422078,10.1659091 C6.6974026,9.81818182 6.77922078,9.40909091 6.77922078,9 C6.77922078,8.59090909 6.6974026,8.18181818 6.55422078,7.83409091 L11.5246753,4.95 C12.0974026,5.66590909 12.9564935,6.13636364 13.9383117,6.13636364 C15.636039,6.13636364 17.0064935,4.76590909 17.0064935,3.06818182 C17.0064935,1.37045455 15.636039,0 13.9383117,0 C12.2405844,0 10.8701299,1.37045455 10.8701299,3.06818182 C10.8701299,3.47727273 10.9519481,3.88636364 11.0951299,4.23409091 L6.12467532,7.11818182 C5.55194805,6.40227273 4.69285714,5.93181818 3.71103896,5.93181818 C2.01331169,5.93181818 0.642857143,7.30227273 0.642857143,9 C0.642857143,10.6977273 2.01331169,12.0681818 3.71103896,12.0681818 C4.69285714,12.0681818 5.5724026,11.5977273 6.12467532,10.8818182 L11.0951299,13.7659091 C10.9519481,14.1136364 10.8701299,14.5227273 10.8701299,14.9318182 C10.8701299,16.6295455 12.2405844,18 13.9383117,18 C15.636039,18 17.0064935,16.6295455 17.0064935,14.9318182 C17.0064935,13.2340909 15.636039,11.8636364 13.9383117,11.8636364 Z M13.9383117,0.818181818 C15.186039,0.818181818 16.1883117,1.82045455 16.1883117,3.06818182 C16.1883117,4.31590909 15.186039,5.31818182 13.9383117,5.31818182 C12.6905844,5.31818182 11.6883117,4.31590909 11.6883117,3.06818182 C11.6883117,1.82045455 12.6905844,0.818181818 13.9383117,0.818181818 Z M3.71103896,11.25 C2.46331169,11.25 1.46103896,10.2477273 1.46103896,9 C1.46103896,7.75227273 2.46331169,6.75 3.71103896,6.75 C4.95876623,6.75 5.96103896,7.75227273 5.96103896,9 C5.96103896,10.2477273 4.95876623,11.25 3.71103896,11.25 Z M13.9383117,17.1818182 C12.6905844,17.1818182 11.6883117,16.1795455 11.6883117,14.9318182 C11.6883117,13.6840909 12.6905844,12.6818182 13.9383117,12.6818182 C15.186039,12.6818182 16.1883117,13.6840909 16.1883117,14.9318182 C16.1883117,16.1795455 15.186039,17.1818182 13.9383117,17.1818182 Z" id="Shape"></path>
                            </g>
                        </g>
                    </g>
                </g>
            </g>
        </g>
    </g>
</svg>