<?xml version="1.0" encoding="UTF-8"?>
<svg width="19px" height="16px" viewBox="0 0 19 16" version="1.1" xmlns="http://www.w3.org/2000/svg" xmlns:xlink="http://www.w3.org/1999/xlink">
    <!-- Generator: sketchtool 55.2 (78181) - https://sketchapp.com -->
    <title>49B70934-1C82-4D80-9AC1-647871762AC7@1.00x</title>
    <desc>Created with sketchtool.</desc>
    <g id="Journey-Planner" stroke="none" stroke-width="1" fill="none" fill-rule="evenodd">
        <g id="2.2.2---CaltexB2B---Journey-Planner---3-Routes" transform="translate(-1201.000000, -625.000000)" fill="#FFFFFF">
            <g id="drawer" transform="translate(97.000000, 608.000000)">
                <g id="Group" transform="translate(925.000000, 10.000000)">
                    <g id="icons/restart" transform="translate(179.500000, 6.000000)">
                        <g id="noun_Refresh_2283869" transform="translate(0.000000, 1.285714)">
                            <g id="Group">
                                <path d="M14.4,9.34144929 L14.4,7.71428571 C14.4,3.95528887 11.3776718,0.907563025 7.65,0.907563025 C3.92232813,0.907563025 0.9,3.95528887 0.9,7.71428571 C0.9,11.4732825 3.92232813,14.5210084 7.65,14.5210084 C7.89852816,14.5210084 8.1,14.7241733 8.1,14.9747899 C8.1,15.2254065 7.89852816,15.4285714 7.65,15.4285714 C3.42527187,15.4285714 0,11.9745158 0,7.71428571 C0,3.45405566 3.42527187,0 7.65,0 C11.8747282,0 15.3,3.45405566 15.3,7.71428571 L15.3,9.34144929 L17.2318019,7.39341372 C17.4075379,7.21620106 17.6924621,7.21620106 17.8681981,7.39341372 C18.043934,7.57062647 18.043934,7.85794495 17.8681981,8.03515771 L15.1681981,10.7578468 C15.0803301,10.8464532 14.9651651,10.8907563 14.85,10.8907563 C14.7348349,10.8907563 14.6196699,10.8464532 14.5318019,10.7578468 L11.8318019,8.03515771 C11.6560661,7.85794495 11.6560661,7.57062647 11.8318019,7.39341372 C12.0075379,7.21620106 12.2924621,7.21620106 12.4681981,7.39341372 L14.4,9.34144929 Z" id="Path"></path>
                            </g>
                        </g>
                    </g>
                </g>
            </g>
        </g>
    </g>
</svg>