<?xml version="1.0" encoding="UTF-8"?>
<svg width="16px" height="16px" viewBox="0 0 16 16" version="1.1" xmlns="http://www.w3.org/2000/svg" xmlns:xlink="http://www.w3.org/1999/xlink">
    <!-- Generator: sketchtool 55.2 (78181) - https://sketchapp.com -->
    <title>8347262D-72D8-4266-A7D9-1D79359D1070@1.00x</title>
    <desc>Created with sketchtool.</desc>
    <g id="Journey-Planner" stroke="none" stroke-width="1" fill="none" fill-rule="evenodd">
        <g id="2.2.2---CaltexB2B---Journey-Planner---3-Routes" transform="translate(-378.000000, -765.000000)" fill="#19516C">
            <g id="drawer" transform="translate(97.000000, 608.000000)">
                <g id="JO" transform="translate(45.000000, 117.000000)">
                    <g id="C.S" transform="translate(187.000000, 0.000000)">
                        <g id="icons/journey-planner/station" transform="translate(49.000000, 40.000000)">
                            <path d="M15.7665372,5.04368359 C15.9178657,5.19165683 16.0029879,5.39630067 15.9999198,5.61038961 L15.9999198,12.0015742 C15.9999198,13.3238882 14.9247724,14.3974813 13.6006481,14.3974813 C12.2765238,14.3974813 11.201461,13.3238882 11.201461,12.0015742 L11.201461,10.4022039 L10.4006811,10.4022039 L10.4006811,14.3974813 L10.879888,14.3974813 C11.0595906,14.3974813 11.201461,14.5423062 11.201461,14.7186147 L11.201461,15.6788666 C11.201461,15.8583235 11.0564379,16 10.879888,16 L10.4006811,16 L0.800779932,16 L0.321573044,16 C0.14187046,16 0,15.8551751 0,15.6788666 L0,14.7186147 C0,14.5391578 0.145023137,14.3974813 0.321573044,14.3974813 L0.800779932,14.3974813 L0.800779932,0.799685163 C0.800779932,0.358913813 1.1601851,0 1.60155986,0 L9.59674848,0 C10.0381232,0 10.3975284,0.358913813 10.3975284,0.799685163 L10.3975284,8.80283353 L11.9990883,8.80283353 C12.440463,8.80283353 12.7998682,9.16174734 12.7998682,9.60251869 L12.7998682,11.9984258 C12.7998682,12.4391972 13.1592734,12.798111 13.6006481,12.798111 C14.0420229,12.798111 14.4014281,12.4391972 14.4014281,11.9984258 L14.4014281,5.93781976 L12.235539,3.77489177 C11.923424,3.46320346 11.923424,2.95631641 12.235539,2.6446281 C12.5476541,2.33293979 13.055235,2.33293979 13.36735,2.6446281 L15.7665372,5.04368359 Z M0.8,14 L0.8,14.4 L10.4,14.4 L10.4,14 L0.8,14 Z M2.4023398,5.2892562 L2.4023398,1.91735537 C2.4023398,1.74104683 2.54421026,1.59937033 2.72391284,1.59937033 L8.48385353,1.59937033 C8.66040344,1.59937033 8.80542658,1.74104683 8.80542658,1.91735537 L8.80542658,5.2892562 C8.80542658,5.46556474 8.66355612,5.61038961 8.48385353,5.61038961 L2.72076016,5.61038961 C2.54421026,5.60724124 2.4023398,5.46556474 2.4023398,5.2892562 Z" id="Shape"></path>
                        </g>
                    </g>
                </g>
            </g>
        </g>
    </g>
</svg>