<?xml version="1.0" encoding="UTF-8"?>
<svg width="17px" height="18px" viewBox="0 0 17 18" version="1.1" xmlns="http://www.w3.org/2000/svg" xmlns:xlink="http://www.w3.org/1999/xlink">
    <!-- Generator: sketchtool 55.2 (78181) - https://sketchapp.com -->
    <title>DE791471-B5A6-456E-8DC7-3347A1C9E2EF@1.00x</title>
    <desc>Created with sketchtool.</desc>
    <g id="Journey-Planner" stroke="none" stroke-width="1" fill="none" fill-rule="evenodd">
        <g id="2.1.2---CaltexB2B---Journey-Planner--Create" transform="translate(-554.000000, -377.000000)" fill="#E62F46">
            <g id="Routes-Popup-Copy" transform="translate(97.000000, 258.000000)">
                <g id="A" transform="translate(45.000000, 113.000000)">
                    <g id="Icons" transform="translate(369.000000, 0.000000)">
                        <g id="icons/delete" transform="translate(42.500000, 6.000000)">
                            <path d="M6.69651429,5.13138462 C6.95045275,5.13138462 7.15620659,5.33713846 7.15620659,5.59107692 L7.15620659,15.0114462 C7.15620659,15.2653846 6.95045275,15.4711385 6.69651429,15.4711385 C6.44257582,15.4711385 6.23682198,15.2653846 6.23682198,15.0114462 L6.23682198,5.59107692 C6.23682198,5.33713846 6.44257582,5.13138462 6.69651429,5.13138462 Z M9.05645275,5.13138462 C9.31039121,5.13138462 9.51642198,5.33713846 9.51642198,5.59107692 L9.51642198,15.0114462 C9.51642198,15.2653846 9.31039121,15.4711385 9.05645275,15.4711385 C8.80279121,15.4711385 8.59676044,15.2653846 8.59676044,15.0114462 L8.59676044,5.59107692 C8.59676044,5.33713846 8.80279121,5.13138462 9.05645275,5.13138462 Z M11.3283297,5.13138462 C11.5822681,5.13138462 11.788022,5.33713846 11.788022,5.59107692 L11.788022,15.0114462 C11.788022,15.2653846 11.5822681,15.4711385 11.3283297,15.4711385 C11.0743912,15.4711385 10.8686374,15.2653846 10.8686374,15.0114462 L10.8686374,5.59107692 C10.8686374,5.33713846 11.0743912,5.13138462 11.3283297,5.13138462 Z M16.241222,2.40424615 C16.4705143,2.40424615 16.6563297,2.59006154 16.6563297,2.81963077 C16.6563297,3.0492 16.4702374,3.23501538 16.2409451,3.23501538 L15.3761143,3.23501538 L14.0867604,16.2775385 C14.0751297,17.1113538 13.3927912,17.7864923 12.5562066,17.7864923 L5.55752967,17.7864923 C4.72039121,17.7864923 4.03805275,17.1110769 4.0266989,16.2764308 L2.79826813,3.23501538 L1.73405275,3.23501538 C1.50448352,3.23501538 1.31866813,3.0492 1.31866813,2.81963077 C1.31866813,2.59006154 1.50448352,2.40424615 1.73405275,2.40424615 L5.18285275,2.40424615 L5.18285275,0.0692307692 L12.9915297,0.0692307692 L12.9915297,2.40424615 L16.241222,2.40424615 Z M6.01362198,0.9 L6.01362198,2.40424615 L12.1607604,2.40424615 L12.1607604,0.9 L6.01362198,0.9 Z M13.2582066,16.2144 L14.5411912,3.23473846 L12.9915297,3.23473846 L5.18285275,3.23473846 L3.63263736,3.23473846 L4.85719121,16.2551077 C4.85719121,16.6411385 5.17122198,16.9554462 5.55752967,16.9554462 L12.5562066,16.9554462 C12.9422374,16.9554462 13.2562681,16.6414154 13.2562681,16.2551077 L13.2582066,16.2144 Z" id="Combined-Shape"></path>
                        </g>
                    </g>
                </g>
            </g>
        </g>
    </g>
</svg>